<!DOCTYPE svg PUBLIC "-//W3C//DTD SVG 1.1//EN" "http://www.w3.org/Graphics/SVG/1.1/DTD/svg11.dtd">
<!-- Uploaded to: SVG Repo, www.svgrepo.com, Transformed by: SVG Repo Mixer Tools -->
<svg fill="#DA3850" height="800px" width="800px" version="1.1" xmlns="http://www.w3.org/2000/svg" xmlns:xlink="http://www.w3.org/1999/xlink" viewBox="0 0 24 24" enable-background="new 0 0 24 24" xml:space="preserve">
<g id="SVGRepo_bgCarrier" stroke-width="0"/>
<g id="SVGRepo_tracerCarrier" stroke-linecap="round" stroke-linejoin="round"/>
<g id="SVGRepo_iconCarrier"> <g id="user-expert"> <path d="M2,19c0-3.9,3.1-7,7-7c2.5,0,4.8,1.3,6.1,3.5l1.7-1c-1-1.7-2.5-3-4.2-3.7C14.1,9.7,15,7.9,15,6c0-3.3-2.7-6-6-6S3,2.7,3,6 c0,1.9,0.9,3.7,2.4,4.8C2.2,12.2,0,15.3,0,19v5h12v-2H2V19z M5,6c0-2.2,1.8-4,4-4s4,1.8,4,4s-1.8,4-4,4S5,8.2,5,6z"/> <path d="M24.1,15.8l-7.6,7.6l-4.7-4.7l1.4-1.4l3.3,3.3l6.2-6.2L24.1,15.8z"/> </g> </g>
</svg>