<!DOCTYPE svg PUBLIC "-//W3C//DTD SVG 1.1//EN" "http://www.w3.org/Graphics/SVG/1.1/DTD/svg11.dtd">
<!-- Uploaded to: SVG Repo, www.svgrepo.com, Transformed by: SVG Repo Mixer Tools -->
<svg fill="#DA3850" height="800px" width="800px" version="1.1" id="Layer_1" xmlns="http://www.w3.org/2000/svg" xmlns:xlink="http://www.w3.org/1999/xlink" viewBox="0 0 512 512" xml:space="preserve">
<g id="SVGRepo_bgCarrier" stroke-width="0"/>
<g id="SVGRepo_tracerCarrier" stroke-linecap="round" stroke-linejoin="round"/>
<g id="SVGRepo_iconCarrier"> <g> <g> <path d="M217.179,341.018l-25.6-140.8c-2.202-12.169-12.808-21.018-25.182-21.018h-102.4c-12.373,0-22.972,8.849-25.182,21.026 l-25.6,140.8c-1.357,7.467,0.666,15.155,5.53,20.983s12.066,9.19,19.652,9.19h16.358l9.327,117.231 C65.141,501.734,76.243,512,89.597,512h51.2c13.355,0,24.465-10.266,25.523-23.569l9.318-117.231h16.358 c7.595,0,14.788-3.371,19.652-9.199S218.536,348.493,217.179,341.018z M151.993,345.6l-11.196,140.8h-51.2L78.402,345.6H38.397 l25.6-140.8h38.4v77.875c0,7.074,5.726,12.8,12.8,12.8s12.8-5.726,12.8-12.8V204.8h38.4l25.6,140.8H151.993z"/> </g> </g> <g> <g> <path d="M115.197,0c-42.351,0-76.8,34.449-76.8,76.8c0,42.351,34.458,76.8,76.8,76.8c42.351,0,76.8-34.449,76.8-76.8 C191.997,34.449,157.548,0,115.197,0z M115.197,128c-28.279,0-51.2-22.921-51.2-51.2s22.921-51.2,51.2-51.2s51.2,22.921,51.2,51.2 S143.477,128,115.197,128z"/> </g> </g> <g> <g> <path d="M473.597,0h-230.4c-14.14,0-25.6,11.46-25.6,25.6v128c0,14.14,11.46,25.6,25.6,25.6h15.684l-14.37,43.102 c-3.541,10.624,0.23,22.315,9.318,28.868c4.471,3.217,9.719,4.83,14.967,4.83c5.41,0,10.812-1.707,15.36-5.12l95.573-71.68h93.867 c14.14,0,25.6-11.46,25.6-25.6v-128C499.197,11.46,487.737,0,473.597,0z M473.597,153.6h-102.4l-102.4,76.8l25.6-76.8h-51.2v-128 h230.4V153.6z"/> </g> </g> </g>
</svg>