<?xml version="1.0" encoding="UTF-8" standalone="no"?>
<svg
   preserveAspectRatio="xMidYMid"
   data-bbox="45 50 110 100"
   viewBox="45 50 137.5 125"
   height="250"
   width="250"
   data-type="color"
   role="presentation"
   aria-hidden="true"
   aria-label=""
   version="1.1"
   id="svg2"
   sodipodi:docname="soniclogo-full.svg"
   inkscape:version="1.3.2 (091e20e, 2023-11-25)"
   inkscape:export-filename="soniclogo-full.png"
   inkscape:export-xdpi="196.608"
   inkscape:export-ydpi="196.608"
   xmlns:inkscape="http://www.inkscape.org/namespaces/inkscape"
   xmlns:sodipodi="http://sodipodi.sourceforge.net/DTD/sodipodi-0.dtd"
   xmlns:xlink="http://www.w3.org/1999/xlink"
   xmlns="http://www.w3.org/2000/svg"
   xmlns:svg="http://www.w3.org/2000/svg">
  <defs
     id="defs2">
    <linearGradient
       id="linearGradient2"
       inkscape:collect="always">
      <stop
         style="stop-color:#347595;stop-opacity:0.35737705;"
         offset="0"
         id="stop2" />
      <stop
         style="stop-color:#000000;stop-opacity:0;"
         offset="1"
         id="stop3" />
    </linearGradient>
    <linearGradient
       inkscape:collect="always"
       xlink:href="#linearGradient2"
       id="linearGradient3"
       x1="54.964272"
       y1="159.16281"
       x2="162.63573"
       y2="159.16281"
       gradientUnits="userSpaceOnUse"
       gradientTransform="translate(-7.4121999,4.549153)" />
  </defs>
  <sodipodi:namedview
     id="namedview2"
     pagecolor="#ffffff"
     bordercolor="#666666"
     borderopacity="1.0"
     inkscape:showpageshadow="2"
     inkscape:pageopacity="0.0"
     inkscape:pagecheckerboard="0"
     inkscape:deskcolor="#d1d1d1"
     inkscape:zoom="1.18"
     inkscape:cx="101.27119"
     inkscape:cy="90.677966"
     inkscape:window-width="1360"
     inkscape:window-height="795"
     inkscape:window-x="0"
     inkscape:window-y="25"
     inkscape:window-maximized="0"
     inkscape:current-layer="svg2" />
  <g
     id="g2"
     transform="matrix(0.9661017,0,0,0.93474577,17.13983,3.5949152)">
    <path
       d="M 148.643,97.549 C 148.026,71.227 126.451,50 100,50 73.549,50 51.975,71.227 51.358,97.549 47.502,100.507 45,105.149 45,110.376 c 0,8.514 6.613,15.496 14.967,16.113 8.415,12.161 22.237,20.278 38.163,20.881 l 0.128,0.003 a 3.335,3.335 0 0 0 3.329,-3.21 3.335,3.335 0 0 0 -3.206,-3.46 c -12.571,-0.476 -23.623,-6.377 -30.976,-15.411 5.821,-2.449 9.92,-8.212 9.92,-14.916 0,-8.918 -7.251,-16.174 -16.163,-16.174 -1.011,0 -1.996,0.105 -2.956,0.284 C 60.328,73.283 78.261,56.672 100,56.672 c 21.739,0 39.672,16.611 41.793,37.814 a 16.1,16.1 0 0 0 -2.956,-0.284 c -8.912,0 -16.163,7.256 -16.163,16.174 0,8.918 7.251,16.174 16.163,16.174 8.912,0 16.163,-7.256 16.163,-16.174 0,-5.226 -2.501,-9.868 -6.357,-12.827 z m -87.48,3.392 c 5.199,0 9.429,4.232 9.429,9.435 0,4.408 -3.041,8.109 -7.131,9.14 a 9.367,9.367 0 0 1 -2.298,0.295 9.378,9.378 0 0 1 -6.073,-2.229 9.417,9.417 0 0 1 -2.944,-9.956 9.467,9.467 0 0 1 5.949,-6.161 9.34,9.34 0 0 1 3.068,-0.524 z m 77.674,18.87 c -5.199,0 -9.429,-4.232 -9.429,-9.435 0,-5.202 4.23,-9.435 9.429,-9.435 5.199,0 9.429,4.232 9.429,9.435 -0.001,5.202 -4.23,9.435 -9.429,9.435 z"
       fill="#0e4828"
       data-color="1"
       id="path1" />
    <path
       d="m 100,132.077 c -4.938,0 -8.956,4.02 -8.956,8.961 0,4.941 4.018,8.962 8.956,8.962 4.938,0 8.956,-4.02 8.956,-8.961 0,-4.941 -4.018,-8.962 -8.956,-8.962 z"
       fill="#e98866"
       data-color="2"
       id="path2" />
  </g>
  <text
     xml:space="preserve"
     style="font-style:normal;font-variant:normal;font-weight:600;font-stretch:normal;font-size:22px;line-height:1.25;font-family:'American Typewriter';-inkscape-font-specification:'American Typewriter, Semi-Bold';font-variant-ligatures:normal;font-variant-caps:normal;font-variant-numeric:normal;font-variant-east-asian:normal;fill:#0000ff;fill-opacity:1;stroke:url(#linearGradient3);stroke-width:0.55;stroke-opacity:1"
     x="46.452065"
     y="170.26622"
     id="text2"><tspan
       sodipodi:role="line"
       id="tspan2"
       style="font-style:normal;font-variant:normal;font-weight:600;font-stretch:normal;font-size:22px;font-family:'American Typewriter';-inkscape-font-specification:'American Typewriter, Semi-Bold';font-variant-ligatures:normal;font-variant-caps:normal;font-variant-numeric:normal;font-variant-east-asian:normal;fill:#0000ff;stroke:url(#linearGradient3);stroke-width:0.55;stroke-opacity:1"
       x="46.452065"
       y="170.26622">Sonic Linker</tspan></text>
</svg>
