<svg width="71" height="71" viewBox="0 0 71 71" fill="none" xmlns="http://www.w3.org/2000/svg">
<path d="M1.15082 26.5C0.399808 29.3742 0 32.3904 0 35.5C0 50.4748 9.27194 63.2841 22.3881 68.5L1.15082 26.5Z" fill="#5759DA"/>
<path d="M24.5 69.2629C27.9633 70.3905 31.6605 71 35.5 71L70.5765 41C70.8553 39.2075 71 37.3707 71 35.5C71 16.5651 56.1757 1.09255 37.5 0.05539L8.5 37.2126L24.5 69.2629Z" fill="#5759DA"/>
<path d="M35.5 0C19.9188 0 6.68211 10.038 1.90408 24L7.64505 35.5L35.5 0Z" fill="#5759DA"/>
<path d="M69.9759 44C66.3978 58.5621 53.8343 69.5919 38.5 70.875L69.9759 44Z" fill="#5759DA"/>
<path d="M36.0395 54.7015L36.0185 54.705L35.8942 54.7662L35.8592 54.7732L35.8347 54.7662L35.7105 54.7033C35.6918 54.6986 35.6778 54.7021 35.6685 54.7137L35.6615 54.7312L35.6317 55.4802L35.6405 55.5152L35.658 55.538L35.84 55.6675L35.8662 55.6745L35.8872 55.6675L36.0692 55.538L36.0902 55.51L36.0972 55.4802L36.0675 54.733C36.0628 54.7143 36.0535 54.7038 36.0395 54.7015ZM36.5015 54.5038L36.477 54.5072L36.155 54.67L36.1375 54.6875L36.1322 54.7067L36.1637 55.4592L36.1725 55.4802L36.1865 55.4943L36.5382 55.6552C36.5604 55.6611 36.5773 55.6564 36.589 55.6412L36.596 55.6167L36.5365 54.5422C36.5307 54.5201 36.519 54.5073 36.5015 54.5038ZM35.2502 54.5072C35.2425 54.5026 35.2333 54.5011 35.2245 54.503C35.2157 54.505 35.208 54.5102 35.203 54.5177L35.1925 54.5422L35.133 55.6167C35.1342 55.6377 35.1441 55.6518 35.1627 55.6588L35.189 55.6552L35.5407 55.4925L35.5582 55.4785L35.5635 55.4592L35.595 54.7067L35.5897 54.6858L35.5722 54.6683L35.2502 54.5072Z" fill="white"/>
<path d="M29.9373 23.534C30.9838 20.4715 35.2153 20.3788 36.456 23.2558L36.561 23.5358L37.9733 27.6658C38.2969 28.6129 38.8199 29.4796 39.507 30.2075C40.1941 30.9353 41.0293 31.5074 41.9563 31.885L42.336 32.0267L46.466 33.4373C49.5285 34.4838 49.6213 38.7152 46.746 39.956L46.466 40.061L42.336 41.4733C41.3885 41.7967 40.5214 42.3196 39.7933 43.0067C39.0651 43.6938 38.4928 44.5291 38.115 45.4563L37.9733 45.8342L36.5627 49.966C35.5162 53.0285 31.2847 53.1212 30.0457 50.246L29.9373 49.966L28.5267 45.836C28.2033 44.8885 27.6804 44.0214 26.9933 43.2933C26.3062 42.5651 25.4709 41.9928 24.5437 41.615L24.1657 41.4733L20.0357 40.0627C16.9715 39.0162 16.8787 34.7847 19.7557 33.5457L20.0357 33.4373L24.1657 32.0267C25.1129 31.7031 25.9796 31.1801 26.7075 30.493C27.4353 29.8059 28.0074 28.9707 28.385 28.0437L28.5267 27.6658L29.9373 23.534ZM47.25 17.5C47.5774 17.5 47.8982 17.5918 48.176 17.7651C48.4538 17.9383 48.6775 18.186 48.8215 18.48L48.9055 18.6848L49.518 20.4803L51.3153 21.0928C51.6433 21.2042 51.931 21.4106 52.1417 21.6857C52.3523 21.9608 52.4766 22.2922 52.4987 22.638C52.5209 22.9838 52.4398 23.3284 52.2659 23.6281C52.092 23.9278 51.833 24.1691 51.5218 24.3215L51.3153 24.4055L49.5198 25.018L48.9073 26.8152C48.7956 27.1433 48.5891 27.4307 48.3139 27.6412C48.0387 27.8518 47.7072 27.9758 47.3614 27.9978C47.0156 28.0197 46.6711 27.9385 46.3715 27.7644C46.0719 27.5903 45.8307 27.3313 45.6785 27.02L45.5945 26.8152L44.982 25.0197L43.1848 24.4073C42.8567 24.2958 42.569 24.0894 42.3583 23.8143C42.1477 23.5392 42.0234 23.2078 42.0013 22.862C41.9791 22.5162 42.0602 22.1716 42.2341 21.8719C42.408 21.5722 42.667 21.3309 42.9783 21.1785L43.1848 21.0945L44.9802 20.482L45.5927 18.6848C45.7108 18.339 45.934 18.0388 46.2312 17.8264C46.5284 17.6139 46.8847 17.4998 47.25 17.5Z" fill="white"/>
</svg>
