<svg width="26" height="26" viewBox="0 0 26 26" fill="none" xmlns="http://www.w3.org/2000/svg">
<path fill-rule="evenodd" clip-rule="evenodd" d="M16.2021 0.408325C15.7879 0.408325 15.4521 0.744112 15.4521 1.15833C15.4521 1.57254 15.7879 1.90833 16.2021 1.90833C20.5642 1.90833 24.0913 5.43548 24.0913 9.79749C24.0913 10.2117 24.4271 10.5475 24.8413 10.5475C25.2555 10.5475 25.5913 10.2117 25.5913 9.79749C25.5913 4.60705 21.3926 0.408325 16.2021 0.408325ZM24.8055 21.3123C24.8055 21.7566 24.7068 22.2132 24.4969 22.6575C24.2871 23.1018 24.0156 23.5214 23.6577 23.9164C23.053 24.5828 22.3865 25.0641 21.6337 25.3727C20.8932 25.6812 20.091 25.8417 19.2271 25.8417C17.9682 25.8417 16.623 25.5455 15.2037 24.9407C13.7844 24.336 12.3651 23.5214 10.9581 22.4971C9.53885 21.4604 8.1936 20.3126 6.91007 19.0414C5.63888 17.7579 4.4911 16.4126 3.46675 15.0057C2.45473 13.5987 1.64018 12.1918 1.04778 10.7972C0.45538 9.39022 0.15918 8.04498 0.15918 6.76144C0.15918 5.92221 0.30728 5.12 0.60348 4.3795C0.89968 3.62666 1.36866 2.93553 2.02277 2.31844C2.81264 1.54092 3.67656 1.15833 4.58984 1.15833C4.93541 1.15833 5.28097 1.23238 5.58951 1.38048C5.9104 1.52858 6.19426 1.75073 6.41641 2.07161L9.27967 6.10733C9.50182 6.41588 9.66226 6.69973 9.77334 6.97125C9.88441 7.23043 9.94612 7.4896 9.94612 7.72409C9.94612 8.02029 9.85973 8.31649 9.68695 8.60035C9.52651 8.88421 9.29201 9.18041 8.99581 9.47661L8.05785 10.4516C7.92209 10.5874 7.86038 10.7478 7.86038 10.9453C7.86038 11.044 7.87272 11.1304 7.89741 11.2291C7.91439 11.2744 7.93137 11.3145 7.94716 11.3518C7.9658 11.3958 7.98278 11.4359 7.99614 11.476C8.21829 11.8832 8.60088 12.4139 9.14391 13.0557C9.69929 13.6975 10.2917 14.3516 10.9335 15.0057C11.5999 15.6598 12.2417 16.2645 12.8958 16.8199C13.5375 17.3629 14.0682 17.7332 14.4879 17.9553C14.5212 17.9687 14.5582 17.9857 14.5989 18.0043L14.5989 18.0043C14.6334 18.0201 14.6704 18.0371 14.71 18.0541C14.8087 18.0911 14.9075 18.1034 15.0185 18.1034C15.2284 18.1034 15.3888 18.0294 15.5246 17.8936L16.4625 16.968C16.7711 16.6595 17.0673 16.425 17.3511 16.2769C17.635 16.1041 17.9188 16.0177 18.2274 16.0177C18.4619 16.0177 18.7087 16.0671 18.9802 16.1781C19.2517 16.2892 19.5356 16.4497 19.8441 16.6595L23.9292 19.5598C24.2501 19.7819 24.4723 20.0411 24.608 20.3496C24.7314 20.6582 24.8055 20.9667 24.8055 21.3123ZM15.4521 5.47791C15.4521 5.06369 15.7879 4.72791 16.2021 4.72791C17.5406 4.72791 18.7744 5.56631 19.6268 6.48504C20.1031 6.99549 20.5046 7.56674 20.7907 8.12321C21.0692 8.66482 21.2717 9.25742 21.2717 9.79749C21.2717 10.2117 20.9359 10.5475 20.5217 10.5475C20.1075 10.5475 19.7717 10.2117 19.7717 9.79749C19.7717 9.59706 19.6843 9.25169 19.4567 8.80905C19.2369 8.38158 18.9168 7.92263 18.5295 7.50767L18.5279 7.50597C17.8006 6.72188 16.9367 6.22791 16.2021 6.22791C15.7879 6.22791 15.4521 5.89212 15.4521 5.47791Z" fill="url(#paint0_linear_552_1380)"/>
<defs>
<linearGradient id="paint0_linear_552_1380" x1="12.8752" y1="0.408325" x2="12.8752" y2="25.8417" gradientUnits="userSpaceOnUse">
<stop stop-color="white"/>
<stop offset="1" stop-color="#9AA2FB"/>
</linearGradient>
</defs>
</svg>
