<svg width="21" height="21" viewBox="0 0 21 21" fill="none" xmlns="http://www.w3.org/2000/svg">
<path d="M14.668 2.03943H6.33464C4.03464 2.03943 2.16797 3.89776 2.16797 6.18943V11.1728V12.0061C2.16797 14.2978 4.03464 16.1561 6.33464 16.1561H7.58464C7.80964 16.1561 8.10964 16.3061 8.2513 16.4894L9.5013 18.1478C10.0513 18.8811 10.9513 18.8811 11.5013 18.1478L12.7513 16.4894C12.9096 16.2811 13.1596 16.1561 13.418 16.1561H14.668C16.968 16.1561 18.8346 14.2978 18.8346 12.0061V6.18943C18.8346 3.89776 16.968 2.03943 14.668 2.03943ZM7.16797 10.3728C6.7013 10.3728 6.33464 9.99776 6.33464 9.53943C6.33464 9.0811 6.70964 8.7061 7.16797 8.7061C7.6263 8.7061 8.0013 9.0811 8.0013 9.53943C8.0013 9.99776 7.63464 10.3728 7.16797 10.3728ZM10.5013 10.3728C10.0346 10.3728 9.66797 9.99776 9.66797 9.53943C9.66797 9.0811 10.043 8.7061 10.5013 8.7061C10.9596 8.7061 11.3346 9.0811 11.3346 9.53943C11.3346 9.99776 10.968 10.3728 10.5013 10.3728ZM13.8346 10.3728C13.368 10.3728 13.0013 9.99776 13.0013 9.53943C13.0013 9.0811 13.3763 8.7061 13.8346 8.7061C14.293 8.7061 14.668 9.0811 14.668 9.53943C14.668 9.99776 14.3013 10.3728 13.8346 10.3728Z" fill="#4F5DF5"/>
</svg>
