<svg width="29" height="24" viewBox="0 0 29 24" fill="none" xmlns="http://www.w3.org/2000/svg">
<path d="M0 17.1063C0 13.0813 0.851443 9.64969 2.55433 6.81154C4.25721 3.9218 6.68254 1.65128 9.83029 0L12.5394 4.1024C11.3526 5.03125 10.3721 6.08911 9.59808 7.27597C8.82404 8.46282 8.30802 9.72709 8.05 11.0688C10.9398 11.5848 12.3846 13.5973 12.3846 17.1063C12.3846 21.2861 10.3205 23.376 6.19231 23.376C2.0641 23.376 0 21.2861 0 17.1063ZM15.4808 17.1063C15.4808 13.0813 16.3322 9.64969 18.0351 6.81154C19.738 3.9218 22.1633 1.65128 25.3111 0L28.0202 4.1024C26.8334 5.03125 25.8529 6.08911 25.0789 7.27597C24.3048 8.46282 23.7888 9.72709 23.5308 11.0688C26.4205 11.5848 27.8654 13.5973 27.8654 17.1063C27.8654 21.2861 25.8013 23.376 21.6731 23.376C17.5449 23.376 15.4808 21.2861 15.4808 17.1063Z" fill="#4F5DF5"/>
</svg>
