<svg width="165" height="26" viewBox="0 0 165 26" fill="none" xmlns="http://www.w3.org/2000/svg">
<path fill-rule="evenodd" clip-rule="evenodd" d="M130.999 25.4254V18.726H131.507L132.637 18.4967L133.44 18.2018L134.193 17.7759L134.865 17.2845L135.471 16.6785L135.995 15.9741L136.503 15.0077L136.765 14.2051L136.945 13.3697L136.962 12.649L136.912 11.8136L136.732 10.9782L136.421 10.192L136.012 9.43853L135.504 8.76695L134.587 7.93157L133.866 7.47293L133.08 7.09619L132.261 6.86687L131.409 6.73583H130.967V0.0200421L131.753 0.0364221L133.047 0.183842L134.292 0.445921L135.504 0.839041L136.65 1.33044L137.764 1.92012L138.845 2.6736L139.91 3.59088L140.827 4.57367L141.581 5.57285L142.236 6.63755L142.744 7.71863L143.088 8.73419L143.186 9.17645V0.495061H149.345L157.535 12.5999L157.551 0.429541L164.267 0.495061V25.1469H158.206L149.869 13.1076V25.1469H143.219V16.4L143.055 16.875L142.629 17.9397L142.056 19.0372L141.384 20.0855L140.598 21.0683L139.746 21.9692L138.78 22.7882L137.748 23.5089L136.667 24.115L135.504 24.6228L134.193 25.0323L132.899 25.2943L131.671 25.4254H130.999ZM130.999 0.0200421V6.76859H130.59L129.738 6.89963L128.919 7.14533L128.133 7.52207L127.412 7.98071L126.757 8.55401L126.184 9.19283L125.709 9.92993L125.365 10.6834L125.119 11.5024L124.971 12.3542V13.1895L125.103 14.0413L125.332 14.8603L125.676 15.6629L125.84 15.9741L125.971 16.1379L126.216 16.4819L126.806 17.1207L127.461 17.6449L128.198 18.1035L129.001 18.4311L129.82 18.6605L130.672 18.7587L130.999 18.7424V25.4418H130.426L129.197 25.3435L127.969 25.1142L126.741 24.721L125.578 24.2296L124.464 23.6563L123.432 22.952L122.514 22.1658L122.121 21.8382L121.794 21.5106V25.1305H107.691V0.495061H114.308V19.0372H119.976L119.73 18.5294L119.468 18.0053L119.009 16.875L118.665 15.7121L118.419 14.4836L118.288 13.2551V12.0429L118.436 10.7653L118.698 9.47129L119.058 8.22641L119.55 7.07981L120.172 5.99873L120.86 4.98317L121.663 4.01676L122.564 3.13224L123.53 2.346L124.578 1.67442L125.659 1.1175L126.806 0.642481L128.002 0.314882L129.23 0.101942L130.459 0.00366211L130.999 0.0200421ZM61.1223 21.1011V15.3681H62.6129V10.7817L61.1223 13.0585V1.90374L61.9741 0.495061H69.0994V25.1469H62.6129V21.1174L61.1223 21.1011ZM74.4884 25.1469H81.0404V6.49013H85.7414V0.495061H69.9511V6.49013H74.472L74.4884 25.1469ZM86.4294 25.1469H93.1124V15.8431H99.861V25.1305H106.495V0.495061L99.861 0.478681V9.97907H93.1124V0.495061H86.4294V25.1469ZM11.491 6.81773L12.0807 7.03067L12.8833 7.42379L13.6204 7.91519L14.2756 8.48849L14.8489 9.14369L15.3239 9.88079L15.7007 10.667L15.9464 11.486L16.0938 12.2886L16.1429 13.0257L16.0774 13.7628L15.93 14.5491L15.6351 15.3517L15.242 16.1379L14.6687 16.8914L13.948 17.5794L13.1454 18.1691L12.31 18.5949L11.491 18.8898V25.065L12.0807 24.9831L13.473 24.6391L14.7834 24.1641L15.8808 23.6072L16.9455 22.9029L17.9283 22.1002L18.7801 21.2649L19.5336 20.3148L20.2707 19.201L20.6638 18.5458V25.1305H34.2756V19.201H27.2322V15.8103H34.2756V9.94631H27.2322V6.32633H34.2756V0.495061H20.6638V7.30913L20.5164 6.91601L19.9595 5.99873L19.206 4.99955L18.2232 3.95124L17.2076 3.06672L16.1593 2.346L14.9472 1.72356L13.4566 1.1994L11.9824 0.806281L11.4746 0.724381L11.491 6.81773ZM61.1223 1.90374V13.0585L59.6318 15.3681H61.1223V21.1011H57.273L56.798 21.5761L55.8316 22.4606L54.8324 23.2468L53.7677 23.902L52.6375 24.459L51.4745 24.9176L50.2624 25.2452L49.0175 25.4745L47.7399 25.5564L46.495 25.54L45.2665 25.3762L43.9889 25.0978L42.6949 24.6719L41.5155 24.1477L40.4672 23.4925L39.468 22.7554L38.5835 21.9364L37.7645 21.0192L37.0274 20.0364L36.3886 18.9553L35.8153 17.6777L35.3566 16.2362L35.0454 14.9422L34.898 13.6646L34.8652 12.4361L34.9635 11.1912L35.1764 9.96269L35.504 8.75057L35.9791 7.53845L36.5687 6.37547L37.2567 5.32715L38.0429 4.36073L38.8947 3.50898L39.8611 2.73912L40.8767 2.05116L42.0233 1.4451L43.3173 0.920941L44.6277 0.544201L45.8562 0.314882L47.1011 0.183842L48.3459 0.232982L49.5744 0.347642L50.8029 0.642481L52.0314 1.05198L53.1944 1.54338L54.2755 2.16582L55.2747 2.88654L56.192 3.68916L56.9782 4.4754L57.2894 4.85213L53.8988 10.1429L53.4729 9.74975L53.047 9.35663L52.0806 8.63591L50.9995 7.98071L49.8365 7.45655L48.6735 7.12895L47.6416 7.01429L46.6588 7.07981L45.6596 7.32551L44.6768 7.70225L43.8742 8.21003L43.219 8.76695L42.6621 9.42215L42.1871 10.1592L41.8431 10.9619L41.5974 11.7972L41.4991 12.6326V13.468L41.6465 14.3034L41.9086 15.1224L42.2854 15.925L42.7768 16.6457L43.3664 17.2845L44.0216 17.7923L44.7587 18.2182L45.5777 18.5458L46.495 18.7587L47.4123 18.857L48.2968 18.7915L49.1158 18.6277L49.9348 18.3165L50.6719 17.9234L51.3599 17.432L51.9168 16.9406L52.1625 16.6949L61.1223 1.90374ZM6.8391 19.201V6.49013H8.65727L9.55817 6.50651L10.4099 6.58841L11.2453 6.73583L11.4746 6.81773V0.740761L10.4918 0.593341L8.82107 0.495061H0.467285V25.1469H10.0496L10.9505 25.1142L11.4746 25.0486V18.857L11.3927 18.8734L10.4099 19.07L9.26333 19.1519L8.62451 19.201H6.8391Z" fill="#85889E"/>
</svg>
