<svg width="34" height="35" viewBox="0 0 34 35" fill="none" xmlns="http://www.w3.org/2000/svg">
<path fill-rule="evenodd" clip-rule="evenodd" d="M11.3414 4.98389H22.2496C22.8393 4.98389 23.455 5.11157 24.0136 5.40641C24.568 5.67773 25.0317 6.07421 25.3938 6.52613L25.4022 6.53705L29.6526 11.9945C30.1918 12.7068 30.4632 13.5771 30.4254 14.4658C30.3896 15.3603 30.0371 16.2129 29.4308 16.8716L29.4266 16.8749L18.4848 28.7282L18.4705 28.7433C18.2509 28.9715 17.9879 29.1534 17.6969 29.2784C17.4059 29.4033 17.0929 29.4687 16.7762 29.4707C16.4594 29.4688 16.1462 29.4035 15.855 29.2785C15.5639 29.1536 15.3007 28.9716 15.0811 28.7433L15.066 28.7282L4.12749 16.864C3.52783 16.2048 3.17853 15.3561 3.14049 14.4658C3.09933 13.5722 3.37577 12.6929 3.92085 11.9836L4.23585 11.5779H4.27785L8.21493 6.52697C8.59125 6.05775 9.0639 5.67477 9.60093 5.40389L9.61437 5.39717C10.1494 5.14108 10.7325 5.00082 11.3254 4.98557L11.3414 4.98389ZM11.375 7.08389C11.0833 7.0919 10.7965 7.16026 10.5325 7.28465C10.2822 7.41065 10.0411 7.60469 9.85713 7.83317L5.41101 13.5426C5.26165 13.8508 5.20729 14.1963 5.25486 14.5354C5.30242 14.8745 5.44976 15.1918 5.67813 15.4469L5.67981 15.4486L16.5788 27.2708C16.6342 27.3237 16.6594 27.338 16.6628 27.3396C16.6883 27.3506 16.7148 27.3593 16.7418 27.3657C16.7642 27.3709 16.7874 27.3709 16.8098 27.3657C16.8371 27.359 16.8638 27.35 16.8896 27.3388C16.8896 27.3388 16.9148 27.327 16.9728 27.2699L27.8961 15.4368C28.1473 15.1706 28.3086 14.7842 28.327 14.3742C28.3444 13.9764 28.2227 13.5849 27.9826 13.2671L23.7499 7.83317C23.5702 7.60389 23.3418 7.4174 23.0812 7.28717L23.0611 7.27877L23.0418 7.26785C22.7967 7.14275 22.5247 7.07958 22.2496 7.08389H11.375Z" fill="#4F5DF5"/>
<path fill-rule="evenodd" clip-rule="evenodd" d="M23.1602 14.7979C23.2577 14.8954 23.3351 15.0111 23.3878 15.1385C23.4406 15.266 23.4678 15.4025 23.4678 15.5404C23.4678 15.6783 23.4406 15.8149 23.3878 15.9423C23.3351 16.0697 23.2577 16.1855 23.1602 16.283L20.3596 19.0827C20.1627 19.2796 19.8955 19.3903 19.617 19.3903C19.3385 19.3903 19.0714 19.2796 18.8745 19.0827C18.6775 18.8858 18.5669 18.6187 18.5669 18.3402C18.5669 18.0616 18.6775 17.7945 18.8745 17.5976L21.6742 14.7979C21.7717 14.7003 21.8875 14.623 22.0149 14.5702C22.1423 14.5174 22.2788 14.4902 22.4168 14.4902C22.5547 14.4902 22.6912 14.5174 22.8186 14.5702C22.946 14.623 23.0626 14.7003 23.1602 14.7979Z" fill="#4F5DF5"/>
</svg>
