<svg width="71" height="71" viewBox="0 0 71 71" fill="none" xmlns="http://www.w3.org/2000/svg">
<path d="M71 35.5C71 15.8939 55.1061 0 35.5 0C31.4806 0 27.6171 0.668003 24.0147 1.89905L11.8456 38.1103L63.4211 57.4265C68.1683 51.3897 71 43.7755 71 35.5Z" fill="#5759DA"/>
<path d="M21.4044 2.90849C8.81075 8.36258 0 20.9024 0 35.5C0 41.9661 1.72875 48.0284 4.74927 53.25L21.4044 2.90849Z" fill="#5759DA"/>
<path d="M6.05599 55.3382C12.4347 64.787 23.2418 71 35.5 71C46.1742 71 55.748 66.289 62.2558 58.8327L11.1438 40.1985L6.05599 55.3382Z" fill="#5759DA"/>
<path d="M53.5036 15.2143H14.9607C12.3109 15.2143 10.167 17.3823 10.167 20.0321L10.1429 48.9393C10.1429 51.5891 12.3109 53.7571 14.9607 53.7571H53.5036C56.1534 53.7571 58.3215 51.5891 58.3215 48.9393V20.0321C58.3215 17.3823 56.1534 15.2143 53.5036 15.2143ZM53.5036 24.85L34.2322 36.8946L14.9607 24.85V20.0321L34.2322 32.0768L53.5036 20.0321V24.85Z" fill="white"/>
</svg>
