<svg width="136" height="26" viewBox="0 0 136 26" fill="none" xmlns="http://www.w3.org/2000/svg">
<path d="M0 1.39664H17.5915V5.12816H4.17575V11.3029H16.0589V15.0345H4.17575V21.4092H17.7692V25.1185H0V1.39664ZM20.5678 7.23825H24.6547V9.94805C25.8097 8.34882 27.3645 6.86066 30.1187 6.86066C32.6953 6.86066 34.4944 8.1045 35.4495 10.0147C36.9154 8.12671 38.8034 6.86066 41.5132 6.86066C45.4002 6.86066 47.7768 9.32613 47.7768 13.7018V25.1185H43.6677V14.9456C43.6677 12.1026 42.335 10.57 40.0472 10.57C37.8039 10.57 36.2269 12.1248 36.2269 15.0123V25.1185H32.1178V14.9234C32.1178 12.147 30.7629 10.5922 28.4973 10.5922C26.2317 10.5922 24.6769 12.2803 24.6769 15.0567V25.1185H20.5678V7.23825ZM65.7237 16.2117V16.145C65.7237 12.6801 63.3915 10.4145 60.6151 10.4145C57.8386 10.4145 55.3954 12.7245 55.3954 16.145V16.2117C55.3954 19.6767 57.8386 21.9422 60.6151 21.9422C63.4137 21.9422 65.7237 19.7433 65.7237 16.2117ZM55.4842 22.342V25.1185H51.3751V0.397126H55.4842V10.2146C56.7947 8.34883 58.6604 6.86066 61.5479 6.86066C65.7903 6.86066 69.8772 10.2146 69.8772 16.145V16.2117C69.8772 22.1421 65.8125 25.4961 61.5479 25.4961C58.616 25.4961 56.7503 24.0079 55.4842 22.342ZM72.6537 25.1185V0.397126H76.7628V25.1185H72.6537ZM92.9993 14.9234C92.7328 12.2803 91.178 10.2146 88.4682 10.2146C85.9583 10.2146 84.2036 12.147 83.826 14.9234H92.9993ZM79.7613 16.2561V16.1895C79.7613 11.0808 83.3818 6.86066 88.5126 6.86066C94.1988 6.86066 97.0863 11.3252 97.0863 16.4782C97.0863 16.8558 97.0418 17.2112 97.0196 17.6332H83.8704C84.3147 20.5429 86.3803 22.1866 89.0235 22.1866C91.0225 22.1866 92.4441 21.4314 93.8656 20.0543L96.2644 22.1866C94.5764 24.2078 92.2442 25.5405 88.9347 25.5405C83.7594 25.5405 79.7613 21.7645 79.7613 16.2561ZM99.8627 7.23825H103.95V9.94805C105.105 8.34882 106.659 6.86066 109.414 6.86066C111.99 6.86066 113.789 8.1045 114.722 10.0147C116.188 8.12671 118.076 6.86066 120.786 6.86066C124.695 6.86066 127.072 9.32613 127.072 13.7018V25.1185H122.963V14.9456C122.963 12.1026 121.652 10.57 119.342 10.57C117.099 10.57 115.522 12.1248 115.522 15.0123V25.1185H111.435V14.9234C111.435 12.147 110.08 10.5922 107.814 10.5922C105.549 10.5922 103.994 12.2803 103.994 15.0567V25.1185H99.9071L99.8627 7.23825ZM132.286 1.95193H131.309V3.12913H132.264C132.73 3.12913 133.041 2.92923 133.041 2.52943C133.063 2.17404 132.775 1.95193 132.286 1.95193ZM132.708 3.50673L133.73 4.83942H133.108L132.153 3.59557H131.309V4.83942H130.82V1.5077H132.308C133.041 1.5077 133.552 1.88529 133.552 2.50721C133.574 3.0625 133.219 3.37346 132.708 3.50673ZM132.108 0.30828C130.42 0.30828 129.154 1.64097 129.154 3.2624C129.154 4.88384 130.398 6.19431 132.086 6.19431C133.752 6.19431 135.04 4.86163 135.04 3.24019C135.04 1.64097 133.774 0.30828 132.108 0.30828ZM132.108 6.48306C130.331 6.48306 128.887 5.06153 128.887 3.28461V3.2624C128.887 1.48549 130.331 0.0195312 132.13 0.0195312C133.907 0.0195312 135.351 1.46328 135.351 3.21798C135.351 3.21798 135.351 3.21798 135.351 3.24019C135.329 5.03932 133.885 6.48306 132.108 6.48306Z" fill="#85889E"/>
</svg>
