<svg width="31" height="30" viewBox="0 0 31 30" fill="none" xmlns="http://www.w3.org/2000/svg">
<path fill-rule="evenodd" clip-rule="evenodd" d="M5.29199 10.3446C5.29199 4.70081 9.85658 0.13623 15.5003 0.13623C21.1441 0.13623 25.7087 4.70081 25.7087 10.3446C25.7087 12.4591 25.0816 14.3987 24.0024 16.0175C22.4274 18.3508 19.9337 19.9987 17.0316 20.4216C16.5357 20.5091 16.0253 20.5529 15.5003 20.5529C14.9753 20.5529 14.4649 20.5091 13.9691 20.4216C11.067 19.9987 8.57324 18.3508 6.99824 16.0175C5.91908 14.3987 5.29199 12.4591 5.29199 10.3446ZM18.7524 11.2341L19.9628 10.0237C20.6774 9.30915 20.4441 8.59456 19.467 8.43415L17.9066 8.17165C17.6295 8.1279 17.3232 7.89456 17.2066 7.66123L16.3462 5.9404C15.8795 5.00706 15.1212 5.00706 14.6545 5.9404L13.7941 7.66123C13.6774 7.89456 13.3712 8.1279 13.1087 8.17165L11.5482 8.43415C10.5566 8.59456 10.3232 9.30915 11.0378 10.0237L12.2774 11.2341C12.4816 11.4383 12.5837 11.8466 12.5253 12.1237L12.1753 13.6258C11.8982 14.8071 12.5253 15.2591 13.5753 14.6466L15.0337 13.7862C15.2962 13.6258 15.7337 13.6258 15.9962 13.7862L17.4545 14.6466C18.5045 15.2737 19.1316 14.8071 18.8545 13.6258L18.5045 12.1237C18.4316 11.8321 18.5482 11.4383 18.7524 11.2341ZM1.93664 24.1551L4.34289 24.7239C4.88247 24.8551 5.30539 25.2634 5.42206 25.803L5.93247 27.9468C6.20956 29.1134 7.69706 29.478 8.46997 28.5593L12.8304 23.5426C13.1804 23.1343 12.9908 22.4926 12.4658 22.3614C9.88456 21.7343 7.56581 20.2905 5.85956 18.2343C5.58247 17.8989 5.08664 17.8551 4.78039 18.1614L1.54289 21.3989C0.434555 22.5072 0.828305 23.8926 1.93664 24.1551ZM28.9897 24.1551L26.5834 24.7239C26.0439 24.8551 25.6209 25.2634 25.5043 25.803L24.9939 27.9468C24.7168 29.1134 23.2293 29.478 22.4564 28.5593L18.0959 23.5426C17.7459 23.1343 17.9355 22.4926 18.4605 22.3614C21.0418 21.7343 23.3605 20.2905 25.0668 18.2343C25.3439 17.8989 25.8397 17.8551 26.1459 18.1614L29.3834 21.3989C30.4918 22.5072 30.098 23.8926 28.9897 24.1551Z" fill="url(#paint0_linear_312_295)"/>
<defs>
<linearGradient id="paint0_linear_312_295" x1="15.4632" y1="0.13623" x2="15.4632" y2="29.0772" gradientUnits="userSpaceOnUse">
<stop stop-color="white"/>
<stop offset="1" stop-color="#CED2FF"/>
</linearGradient>
</defs>
</svg>
