<svg width="193" height="26" viewBox="0 0 193 26" fill="none" xmlns="http://www.w3.org/2000/svg">
<path d="M17.2559 0.40829V5.91468H7.30207V10.2916H14.6439V15.5509H7.30207V25.2929H0.383789V0.40829H17.2559Z" fill="#85889E"/>
<path d="M32.1001 25.54C29.7705 25.54 27.6291 24.9988 25.676 23.9163C23.7229 22.8104 22.1698 21.2926 21.0168 19.363C19.8872 17.4099 19.3225 15.2097 19.3225 12.7624C19.3225 10.3151 19.8872 8.12665 21.0168 6.19706C22.1698 4.24394 23.7229 2.72615 25.676 1.6437C27.6291 0.561246 29.7705 0.0200195 32.1001 0.0200195C34.4533 0.0200195 36.5947 0.561246 38.5243 1.6437C40.4774 2.72615 42.0187 4.24394 43.1482 6.19706C44.2777 8.12665 44.8425 10.3151 44.8425 12.7624C44.8425 15.2097 44.2777 17.4099 43.1482 19.363C42.0187 21.2926 40.4774 22.8104 38.5243 23.9163C36.5711 24.9988 34.4298 25.54 32.1001 25.54ZM32.1001 19.1159C33.865 19.1159 35.2534 18.5394 36.2652 17.3863C37.3006 16.2333 37.8183 14.692 37.8183 12.7624C37.8183 10.7857 37.3006 9.23263 36.2652 8.10312C35.2534 6.95007 33.865 6.37355 32.1001 6.37355C30.3117 6.37355 28.9116 6.95007 27.8997 8.10312C26.8879 9.23263 26.382 10.7857 26.382 12.7624C26.382 14.7155 26.8879 16.2686 27.8997 17.4216C28.9116 18.5511 30.3117 19.1159 32.1001 19.1159Z" fill="#85889E"/>
<path d="M60.5537 25.2929L55.612 16.1156H54.8708V25.2929H47.9525V0.40829H58.8594C60.8596 0.40829 62.5539 0.761264 63.9422 1.46721C65.3306 2.14963 66.3777 3.10266 67.0837 4.3263C67.7896 5.52641 68.1426 6.87948 68.1426 8.3855C68.1426 10.0798 67.672 11.574 66.7307 12.8683C65.813 14.139 64.4599 15.0449 62.6715 15.5862L68.2838 25.2929H60.5537ZM54.8708 11.3858H58.2946C59.2359 11.3858 59.9419 11.1622 60.4125 10.7151C60.8831 10.268 61.1184 9.62091 61.1184 8.77377C61.1184 7.97369 60.8714 7.35011 60.3772 6.90301C59.9066 6.43238 59.2124 6.19706 58.2946 6.19706H54.8708V11.3858Z" fill="#85889E"/>
<path d="M78.2071 5.94998V10.0092H86.149V15.2685H78.2071V19.7513H87.2079V25.2929H71.2888V0.40829H87.2079V5.94998H78.2071Z" fill="#85889E"/>
<path d="M119.676 0.40829V25.2929H112.758V11.5623L108.063 25.2929H102.275L97.5448 11.4564V25.2929H90.6265V0.40829H98.992L105.24 16.5745L111.346 0.40829H119.676Z" fill="#85889E"/>
<path d="M135.545 25.54C133.215 25.54 131.074 24.9988 129.121 23.9163C127.168 22.8104 125.615 21.2926 124.462 19.363C123.332 17.4099 122.767 15.2097 122.767 12.7624C122.767 10.3151 123.332 8.12665 124.462 6.19706C125.615 4.24394 127.168 2.72615 129.121 1.6437C131.074 0.561246 133.215 0.0200195 135.545 0.0200195C137.898 0.0200195 140.039 0.561246 141.969 1.6437C143.922 2.72615 145.463 4.24394 146.593 6.19706C147.722 8.12665 148.287 10.3151 148.287 12.7624C148.287 15.2097 147.722 17.4099 146.593 19.363C145.463 21.2926 143.922 22.8104 141.969 23.9163C140.016 24.9988 137.875 25.54 135.545 25.54ZM135.545 19.1159C137.31 19.1159 138.698 18.5394 139.71 17.3863C140.745 16.2333 141.263 14.692 141.263 12.7624C141.263 10.7857 140.745 9.23263 139.71 8.10312C138.698 6.95007 137.31 6.37355 135.545 6.37355C133.756 6.37355 132.356 6.95007 131.344 8.10312C130.333 9.23263 129.827 10.7857 129.827 12.7624C129.827 14.7155 130.333 16.2686 131.344 17.4216C132.356 18.5511 133.756 19.1159 135.545 19.1159Z" fill="#85889E"/>
<path d="M160.786 25.54C157.892 25.54 155.515 24.8576 153.656 23.4928C151.797 22.1044 150.797 20.1278 150.656 17.5628H158.033C158.104 18.4335 158.363 19.0688 158.81 19.4689C159.257 19.8689 159.833 20.0689 160.539 20.0689C161.175 20.0689 161.692 19.916 162.092 19.6101C162.516 19.2806 162.728 18.8335 162.728 18.2688C162.728 17.5393 162.387 16.9745 161.704 16.5745C161.022 16.1745 159.916 15.7274 158.386 15.2332C156.762 14.692 155.445 14.1743 154.433 13.6801C153.445 13.1624 152.574 12.4212 151.821 11.4564C151.091 10.468 150.727 9.18557 150.727 7.60895C150.727 6.00881 151.127 4.64398 151.927 3.51446C152.727 2.36141 153.833 1.49074 155.245 0.902453C156.657 0.314164 158.257 0.0200195 160.045 0.0200195C162.939 0.0200195 165.246 0.702435 166.963 2.06727C168.705 3.40857 169.634 5.30286 169.752 7.75014H162.234C162.21 6.99713 161.975 6.43238 161.528 6.05587C161.104 5.67936 160.551 5.49111 159.869 5.49111C159.351 5.49111 158.927 5.64407 158.598 5.94998C158.268 6.25589 158.104 6.69122 158.104 7.25598C158.104 7.72661 158.28 8.13842 158.633 8.49139C159.01 8.82083 159.469 9.11498 160.01 9.37382C160.551 9.60914 161.351 9.91505 162.41 10.2916C163.987 10.8328 165.281 11.374 166.293 11.9152C167.328 12.4329 168.211 13.1742 168.94 14.139C169.693 15.0802 170.07 16.2803 170.07 17.7393C170.07 19.2218 169.693 20.5513 168.94 21.7279C168.211 22.9045 167.14 23.834 165.728 24.5164C164.34 25.1988 162.692 25.54 160.786 25.54Z" fill="#85889E"/>
<path d="M192.029 0.40829V5.91468H185.393V25.2929H178.474V5.91468H171.909V0.40829H192.029Z" fill="#85889E"/>
</svg>
