<svg width="23" height="27" viewBox="0 0 23 27" fill="none" xmlns="http://www.w3.org/2000/svg">
<path d="M22.1399 9.11865C20.844 3.4168 15.8704 0.849731 11.5014 0.849731C11.5014 0.849731 11.5014 0.849731 11.4891 0.849731C7.13242 0.849731 2.14638 3.40446 0.850507 9.10631C-0.593468 15.4746 3.3065 20.8679 6.83622 24.2619C8.14443 25.5207 9.82294 26.1501 11.5014 26.1501C13.1799 26.1501 14.8583 25.5207 16.1542 24.2619C19.6839 20.8679 23.5839 15.4869 22.1399 9.11865ZM11.5014 15.3018C9.35395 15.3018 7.61374 13.5616 7.61374 11.4142C7.61374 9.26675 9.35395 7.52657 11.5014 7.52657C13.6489 7.52657 15.389 9.26675 15.389 11.4142C15.389 13.5616 13.6489 15.3018 11.5014 15.3018Z" fill="url(#paint0_linear_552_1360)"/>
<defs>
<linearGradient id="paint0_linear_552_1360" x1="11.4952" y1="0.849731" x2="11.4952" y2="26.1501" gradientUnits="userSpaceOnUse">
<stop stop-color="white"/>
<stop offset="1" stop-color="#9AA2FB"/>
</linearGradient>
</defs>
</svg>
