<svg width="25" height="21" viewBox="0 0 25 21" fill="none" xmlns="http://www.w3.org/2000/svg">
<path fill-rule="evenodd" clip-rule="evenodd" d="M24.3353 4.35859C24.5883 4.23887 24.7154 3.87726 24.7154 3.6366C24.4637 2.19139 23.1986 1.10779 21.556 0.988076C20.9956 0.961275 20.3733 0.928596 19.7136 0.893959C17.3965 0.772288 14.6194 0.626465 12.454 0.626465C9.67342 0.626465 6.00794 0.747413 3.35201 0.988076C1.71057 1.10779 0.445551 2.31234 0.192547 3.75755C0.0666617 3.99821 0.319666 4.23887 0.57267 4.35859L11.6937 10.1382C12.1998 10.3788 12.7058 10.3788 13.2118 10.1382L22.8185 5.08181L24.3353 4.35859ZM24.8422 16.7608V6.28516L22.9465 7.24904L14.2235 11.8241C13.7187 12.0648 13.0868 12.1857 12.5808 12.1857C12.0748 12.1857 11.4429 12.0648 10.9369 11.8241L2.21502 7.24781L0.319336 6.28516V16.7608C0.319336 18.4466 1.70901 19.8918 3.4788 20.0116C4.15937 20.0426 4.90637 20.0814 5.68787 20.1221C7.95481 20.2401 10.5121 20.3732 12.5808 20.3732C15.3614 20.3732 19.0268 20.2522 21.6828 20.0116C23.4513 19.8918 24.8422 18.4466 24.8422 16.7608Z" fill="url(#paint0_linear_552_1348)"/>
<defs>
<linearGradient id="paint0_linear_552_1348" x1="12.5007" y1="0.626465" x2="12.5007" y2="20.3732" gradientUnits="userSpaceOnUse">
<stop stop-color="white"/>
<stop offset="1" stop-color="#9AA2FB"/>
</linearGradient>
</defs>
</svg>
