<svg width="205" height="26" viewBox="0 0 205 26" fill="none" xmlns="http://www.w3.org/2000/svg">
<path fill-rule="evenodd" clip-rule="evenodd" d="M44.804 4.00342C38.1504 4.00342 33.9919 8.62153 33.9919 15.1C33.9919 21.3378 38.61 25.5181 44.804 25.5181C50.2975 25.5181 54.5874 22.3883 55.1783 16.9385H48.6123C48.284 19.1053 47.1021 20.4185 44.7602 20.4185C41.893 20.4185 40.733 17.7264 40.733 15.0781C40.733 12.2547 41.324 9.08115 45.1104 9.08115C46.8175 9.08115 48.3715 10.3068 48.4153 12.014H54.9813C54.5217 6.6736 49.9474 4.00342 44.804 4.00342ZM117.293 4.00342C114.36 4.00342 112.303 5.33851 111.077 7.46153H110.99V4.59436H104.424V24.9272H111.187V14.3559C111.187 11.3793 112.478 9.47511 114.842 9.47511C118.344 9.47511 118.234 12.2985 118.234 15.0781V24.9272H124.997V11.8827C124.997 8.92794 124.165 4.00342 117.293 4.00342ZM137.035 4.00342C134.693 4.00342 132.307 4.39738 130.469 5.42606C128.63 6.47662 127.361 8.20568 127.252 10.8759H133.577C133.905 9.14681 135.087 8.337 136.947 8.337C138.348 8.337 140.208 8.92794 140.208 10.4381C140.208 11.6857 139.574 12.0796 138.414 12.3204C133.73 13.2615 126.398 12.7581 126.398 19.3679C126.398 23.5702 129.506 25.5181 133.445 25.5181C135.919 25.5181 138.501 24.8178 140.252 23.023C140.34 23.6796 140.405 24.3144 140.646 24.9491H147.453C146.665 23.3513 146.665 21.4691 146.665 19.74V10.8102C146.665 5.05398 141.916 4.00342 137.035 4.00342ZM140.143 15.4064C140.296 19.6087 139.224 21.4034 136.006 21.4034C134.496 21.4034 133.183 20.7249 133.183 19.1053C133.183 17.4857 134.452 16.8729 135.962 16.5227C137.429 16.1068 139.18 15.9974 140.143 15.4064ZM148.876 0.0637931V24.9272H155.639V0.0637931H148.876ZM171.725 0.0637931V6.78304H171.638C170.237 4.94455 168.289 4.00342 165.75 4.00342C159.907 4.00342 157.039 9.01549 157.039 14.3121C157.039 20.0245 159.775 25.5181 166.276 25.5181C168.661 25.5181 170.653 24.4895 171.966 22.5853H172.054V24.9272H178.51V0.0637931H171.725ZM167.939 9.10304C170.894 9.10304 171.966 11.817 171.966 14.7498C171.966 17.3325 171.244 20.4404 167.939 20.4404C164.853 20.4185 163.802 17.3106 163.802 14.531C163.802 11.9483 164.853 9.10304 167.939 9.10304ZM179.911 0.0637931V6.78304H183.063L186.215 0.0637931H179.911ZM56.6009 0.0637931V24.9272H67.4568C75.139 24.9272 79.8228 20.5279 79.8228 12.3861C79.8228 4.68191 75.1828 0.0419063 67.4568 0.0419063L56.6009 0.0637931ZM63.8236 5.82002H66.844C70.7836 5.82002 72.5345 8.40266 72.5345 12.3642C72.5345 16.7196 71.1119 19.1491 66.844 19.1491H63.8017V5.82002H63.8236ZM5.51716 0.0200195L0.308105 24.9272H7.74962L9.67565 15.0344C9.87263 13.94 10.0477 12.8457 10.2009 11.7513H10.2666C10.376 12.4298 10.6824 13.8087 10.9889 14.9687L13.7028 24.9272H21.1006L23.7926 14.9687C24.0991 13.8087 24.4055 12.4517 24.5149 11.7513H24.6024C24.6681 12.2766 24.8651 13.7649 25.1277 15.0344L27.0538 24.9272H34.4953L29.2862 0.0200195H21.3851L18.2334 12.5393C17.9707 13.5023 17.6424 15.0781 17.4455 15.8879H17.3798C17.1828 15.0781 16.8545 13.5023 16.5919 12.5393L13.4183 0.0200195H5.51716ZM92.1232 4.00342C85.4477 4.00342 81.2673 8.6653 81.2673 14.7717C81.2673 20.8781 85.4696 25.54 92.1232 25.54C98.7987 25.54 102.979 20.8781 102.979 14.7717C102.979 8.6653 98.7768 4.00342 92.1232 4.00342ZM92.1232 9.08115C95.056 9.08115 96.216 11.5106 96.216 14.7717C96.216 18.0329 95.0341 20.4623 92.1232 20.4623C89.1904 20.4623 88.0304 18.0329 88.0304 14.7717C88.0085 11.5106 89.1904 9.08115 92.1232 9.08115ZM194.269 4.00342C190.264 4.00342 184.792 5.33851 184.792 10.2412C184.792 15.7347 190.22 15.8442 194.422 16.8947C195.604 17.1793 197.683 17.4857 197.683 19.0615C197.683 20.6593 195.845 21.2283 194.532 21.2283C193.59 21.2283 192.781 20.9876 192.146 20.5279C191.467 20.0245 191.051 19.2804 191.051 18.2517H184.595C184.792 23.9423 189.738 25.54 194.575 25.54C199.171 25.54 204.534 23.7453 204.534 18.2955C204.534 16.6102 203.483 13.6336 199.347 12.8019C196.282 12.1453 191.642 11.7951 191.642 9.86908C191.642 8.44643 193.415 8.337 194.51 8.337C195.341 8.337 195.998 8.49021 196.545 8.8404C197.092 9.19059 197.399 9.73776 197.399 10.6132H203.658C203.418 5.29474 198.756 4.00342 194.269 4.00342Z" fill="#85889E"/>
</svg>
