<svg width="25" height="25" viewBox="0 0 25 25" fill="none" xmlns="http://www.w3.org/2000/svg">
<path fill-rule="evenodd" clip-rule="evenodd" d="M24.8181 11.0067V6.06998C24.8181 2.13299 22.8435 0.158325 18.9065 0.158325H11.0078C8.55187 0.158325 6.8734 0.923508 5.94777 2.45388C5.72562 2.82413 6.02182 3.25608 6.45378 3.25608L13.9698 3.24374C18.9065 3.24374 21.7327 6.06998 21.7327 11.0067L21.7204 15.5731C21.7204 16.005 22.1523 16.3012 22.5226 16.0791C24.0529 15.1535 24.8181 13.475 24.8181 11.0067ZM6.07084 5.09497H13.9695C17.9065 5.09497 19.8812 7.06964 19.8812 11.0066V15.9433C19.8812 16.2642 19.8688 16.5727 19.8318 16.8689C19.5479 20.2012 17.5856 21.855 13.9695 21.855H13.4758C13.1673 21.855 12.8711 22.0031 12.686 22.2499L11.205 24.2246C10.5509 25.1008 9.48948 25.1008 8.83537 24.2246L7.35437 22.2499C7.19393 22.0401 6.83602 21.855 6.5645 21.855H6.07084C2.13385 21.855 0.15918 20.88 0.15918 15.9433V11.0066C0.15918 7.39052 1.8253 5.4282 5.14521 5.14434C5.44141 5.10731 5.74995 5.09497 6.07084 5.09497ZM4.47876 13.7341C4.47876 14.4129 5.0218 14.9683 5.71293 14.9683C6.39172 14.9683 6.9471 14.4129 6.9471 13.7341C6.9471 13.0553 6.39172 12.5 5.71293 12.5C5.03414 12.5 4.47876 13.0553 4.47876 13.7341ZM8.786 13.7341C8.786 14.4129 9.32904 14.9683 10.0202 14.9683C10.7113 14.9683 11.2543 14.4129 11.2543 13.7341C11.2543 13.0553 10.699 12.5 10.0202 12.5C9.34138 12.5 8.786 13.0553 8.786 13.7341ZM13.1056 13.7341C13.1056 14.4129 13.6486 14.9683 14.3398 14.9683C15.0185 14.9683 15.5739 14.4129 15.5739 13.7341C15.5739 13.0553 15.0185 12.5 14.3398 12.5C13.661 12.5 13.1056 13.0553 13.1056 13.7341Z" fill="url(#paint0_linear_552_1369)"/>
<defs>
<linearGradient id="paint0_linear_552_1369" x1="12.4887" y1="0.158325" x2="12.4887" y2="24.8818" gradientUnits="userSpaceOnUse">
<stop stop-color="white"/>
<stop offset="1" stop-color="#9AA2FB"/>
</linearGradient>
</defs>
</svg>
