<svg width="71" height="71" viewBox="0 0 71 71" fill="none" xmlns="http://www.w3.org/2000/svg">
<path d="M4.32748 18.5C1.56836 23.5486 0 29.3412 0 35.5C0 45.0002 3.73179 53.6289 9.80945 60L19 32.5L4.32748 18.5Z" fill="#5759DA"/>
<path d="M12.5 62.5426C18.6954 67.8169 26.726 71 35.5 71C40.8605 71 45.9435 69.8119 50.5 67.6846L60 9.80945C53.6289 3.73179 45.0002 0 35.5 0C23.5303 0 12.9442 5.92397 6.51371 15L23 31.5L12.5 62.5426Z" fill="#5759DA"/>
<path d="M54 65.8045C64.196 59.5668 71 48.328 71 35.5C71 27.1908 68.1453 19.5484 63.3631 13.5L54 65.8045Z" fill="#5759DA"/>
<path d="M20 55V43.0889C20 42.4188 20.1537 41.7822 20.4611 41.1791C20.7685 40.576 21.1961 40.0902 21.7437 39.7216L23.875 38.2642C24.101 41.0786 24.4562 43.4742 24.9406 45.451C25.425 47.4278 26.1839 49.6224 27.2172 52.0348L20 55ZM30.1234 50.9794C28.9932 48.768 28.1536 46.4227 27.6047 43.9433C27.0557 41.4639 26.7812 38.9008 26.7812 36.2539C26.7812 32.0657 27.5808 28.1208 29.1799 24.4192C30.779 20.7175 32.8857 17.9111 35.5 16C38.1156 17.9098 40.223 20.7162 41.8221 24.4192C43.4211 28.1222 44.22 32.0671 44.2187 36.2539C44.2187 38.8673 43.9443 41.4056 43.3953 43.8689C42.8464 46.3322 42.0068 48.7024 40.8766 50.9794H30.1234ZM35.5 36.9072C36.5656 36.9072 37.4782 36.5139 38.2377 35.7272C38.9972 34.9405 39.3763 33.9936 39.375 32.8866C39.3737 31.7796 38.9946 30.8334 38.2377 30.048C37.4808 29.2627 36.5682 28.8687 35.5 28.866C34.4318 28.8633 33.5199 29.2573 32.7642 30.048C32.0086 30.8388 31.6289 31.7849 31.625 32.8866C31.6211 33.9882 32.0009 34.9351 32.7642 35.7272C33.5276 36.5192 34.4395 36.9126 35.5 36.9072ZM51 55L43.7828 52.0348C44.8161 49.6224 45.575 47.4278 46.0594 45.451C46.5437 43.4742 46.899 41.0786 47.125 38.2642L49.2562 39.7216C49.8052 40.0902 50.2334 40.576 50.5408 41.1791C50.8482 41.7822 51.0013 42.4188 51 43.0889V55Z" fill="white"/>
</svg>
