<svg width="71" height="71" viewBox="0 0 71 71" fill="none" xmlns="http://www.w3.org/2000/svg">
<path d="M16 65.1695C21.5965 68.8552 28.2978 71 35.5 71C38.6096 71 41.6258 70.6002 44.5 69.8492L37.5 56.1952L16 65.1695Z" fill="#5759DA"/>
<path d="M70.7175 40C70.9039 38.5263 71 37.0243 71 35.5C71 26.488 67.6419 18.2603 62.1088 12L29 0.593731C12.4981 3.6472 0 18.1141 0 35.5C0 47.0243 5.49128 57.266 14 63.7513L70.7175 40Z" fill="#5759DA"/>
<path d="M46.5 69.2629C58.5603 65.3362 67.7847 55.1275 70.31 42.5L39.5 55.3604L46.5 69.2629Z" fill="#5759DA"/>
<path d="M35.5 0C34.4896 0 33.489 0.0422131 32.5 0.124972L59.6715 9.5C53.3338 3.60536 44.8379 0 35.5 0Z" fill="#5759DA"/>
<path d="M35.7692 22.3691C44.0257 22.4501 49.1979 21.9364 49.8965 31.0878H59.9647C59.9647 16.9109 47.6006 15 35.5071 15C23.4127 15 11.0496 16.9109 11.0496 31.0878H21.0396C21.8125 21.762 27.5814 22.2891 35.7692 22.3691Z" fill="white"/>
<path d="M16.0427 35.6453C18.4949 35.6453 20.5354 35.7921 20.9891 33.3799C21.0501 33.052 21.0853 32.6803 21.0853 32.2505H20.9691H11C11 35.8388 13.2578 35.6453 16.0427 35.6453Z" fill="white"/>
<path d="M49.9614 32.2505H49.867C49.867 32.6832 49.9042 33.0558 49.9738 33.3799C50.4522 35.6043 52.4898 35.4661 54.9335 35.4661C57.7317 35.4661 60 35.6501 60 32.2505H49.9614Z" fill="white"/>
<path d="M45.0426 29.8068V28.3811C45.0426 27.7435 44.3078 27.7034 43.4004 27.7034H41.9184C41.0121 27.7034 40.2773 27.7435 40.2773 28.3811V29.6096V30.5626H29.7935V29.6096V28.3811C29.7935 27.7435 29.0587 27.7034 28.1523 27.7034H26.6694C25.763 27.7034 25.0282 27.7435 25.0282 28.3811V29.8068V31.0515C22.6398 33.5333 14.8247 44.0981 14.5406 45.3771L14.5445 53.9118C14.5445 54.7 15.1859 55.3414 15.9741 55.3414H54.0967C54.8849 55.3414 55.5263 54.7 55.5263 53.9118V45.3342C55.2452 44.0924 47.4319 33.5324 45.0426 31.0506V29.8068ZM29.277 46.5255C28.5097 46.5255 27.8874 45.9041 27.8874 45.136C27.8874 44.3678 28.5097 43.7464 29.277 43.7464C30.0442 43.7464 30.6665 44.3678 30.6665 45.136C30.6665 45.9041 30.0442 46.5255 29.277 46.5255ZM29.277 41.7602C28.5097 41.7602 27.8874 41.1388 27.8874 40.3706C27.8874 39.6025 28.5097 38.9811 29.277 38.9811C30.0442 38.9811 30.6665 39.6025 30.6665 40.3706C30.6665 41.1388 30.0442 41.7602 29.277 41.7602ZM29.277 36.9958C28.5097 36.9958 27.8874 36.3744 27.8874 35.6062C27.8874 34.839 28.5097 34.2167 29.277 34.2167C30.0442 34.2167 30.6665 34.839 30.6665 35.6062C30.6665 36.3744 30.0442 36.9958 29.277 36.9958ZM34.9954 46.5255C34.2281 46.5255 33.6058 45.9041 33.6058 45.136C33.6058 44.3678 34.2281 43.7464 34.9954 43.7464C35.7635 43.7464 36.3849 44.3678 36.3849 45.136C36.3849 45.9041 35.7635 46.5255 34.9954 46.5255ZM34.9954 41.7602C34.2281 41.7602 33.6058 41.1388 33.6058 40.3706C33.6058 39.6025 34.2281 38.9811 34.9954 38.9811C35.7635 38.9811 36.3849 39.6025 36.3849 40.3706C36.3849 41.1388 35.7635 41.7602 34.9954 41.7602ZM34.9954 36.9958C34.2281 36.9958 33.6058 36.3744 33.6058 35.6062C33.6058 34.839 34.2281 34.2167 34.9954 34.2167C35.7635 34.2167 36.3849 34.839 36.3849 35.6062C36.3849 36.3744 35.7635 36.9958 34.9954 36.9958ZM40.7138 46.5255C39.9456 46.5255 39.3242 45.9041 39.3242 45.136C39.3242 44.3678 39.9456 43.7464 40.7138 43.7464C41.4819 43.7464 42.1033 44.3678 42.1033 45.136C42.1033 45.9041 41.4819 46.5255 40.7138 46.5255ZM40.7138 41.7602C39.9456 41.7602 39.3242 41.1388 39.3242 40.3706C39.3242 39.6025 39.9456 38.9811 40.7138 38.9811C41.4819 38.9811 42.1033 39.6025 42.1033 40.3706C42.1033 41.1388 41.4819 41.7602 40.7138 41.7602ZM40.7138 36.9958C39.9456 36.9958 39.3242 36.3744 39.3242 35.6062C39.3242 34.839 39.9456 34.2167 40.7138 34.2167C41.4819 34.2167 42.1033 34.839 42.1033 35.6062C42.1033 36.3744 41.4819 36.9958 40.7138 36.9958Z" fill="white"/>
</svg>
