<svg xmlns="http://www.w3.org/2000/svg" fill="none" viewBox="7.04 29.92 73.04 73.48" style="max-height: 500px" width="73.04" height="73.48">
<path fill="#5759DA" d="M79 66.5C79 46.8939 63.1061 31 43.5 31C33.1479 31 23.8307 35.4311 17.3416 42.5L41.5 78.068L79 66.5Z"/>
<path fill="#5759DA" d="M8 66.5C8 73.918 10.2752 80.8046 14.1658 86.5L38 79.1477L14.8745 45.5C10.5529 51.381 8 58.6423 8 66.5Z"/>
<path fill="#5759DA" d="M43.5 102C61.2355 102 75.9333 88.9943 78.5765 72L16.8912 90C23.3957 97.3594 32.9059 102 43.5 102Z"/>
<path fill="white" d="M33.8569 48.5844C36 50.1463 37.6688 52.2781 39.0938 54.3181L39.9225 55.5256L40.7044 56.6788C41.0955 57.2501 41.2627 57.9454 41.1742 58.6321C41.0857 59.3188 40.7476 59.949 40.2244 60.4025L36.5663 63.1194C36.3895 63.247 36.2651 63.4344 36.2162 63.6469C36.1672 63.8593 36.197 64.0823 36.3 64.2744C37.1288 65.78 38.6025 68.0225 40.29 69.71C41.9775 71.3975 44.3269 72.9688 45.9375 73.8913C46.1395 74.0046 46.3772 74.0363 46.6018 73.9798C46.8263 73.9233 47.0208 73.7829 47.145 73.5875L49.5263 69.9631C49.9641 69.3816 50.6099 68.992 51.3285 68.876C52.0471 68.7599 52.7827 68.9264 53.3813 69.3406L54.6244 70.2013C56.9475 71.8138 59.4431 73.6456 61.3519 76.0888C61.6546 76.4784 61.8472 76.9421 61.9095 77.4316C61.9718 77.921 61.9017 78.4182 61.7063 78.8713C60.1369 82.5331 56.1656 85.6513 52.035 85.4994L51.4725 85.4675L51.0356 85.43L50.5519 85.3738L50.025 85.3025L49.4531 85.2088L49.1531 85.1525L48.5231 85.0175L48.1931 84.9425L47.5069 84.7663L46.785 84.56L46.0313 84.3163C42.57 83.1425 38.1769 80.8363 33.6694 76.3288C29.1619 71.8213 26.8575 67.43 25.6838 63.9688L25.44 63.215L25.2338 62.4931L25.0575 61.8069L24.9113 61.1581C24.8691 60.9549 24.8297 60.7512 24.7931 60.5469L24.6994 59.975L24.6244 59.4481L24.57 58.9644L24.5325 58.5275L24.5025 57.965C24.3506 53.8475 27.5025 49.8481 31.1475 48.2863C31.5862 48.0968 32.0667 48.0247 32.5416 48.077C33.0166 48.1292 33.4699 48.3041 33.8569 48.5844Z"/>
<g filter="url(#filter0_ddddd_85_32)">
<path fill="white" d="M49.9828 53.7L50.2003 53.7244C51.5651 53.9651 52.8187 54.6318 53.7813 55.6288C54.744 56.6258 55.3663 57.902 55.559 59.2744C55.6277 59.7491 55.5119 60.2321 55.2354 60.624C54.9588 61.0159 54.5426 61.287 54.0723 61.3814C53.6021 61.4758 53.1135 61.3863 52.7071 61.1315C52.3008 60.8766 52.0075 60.4757 51.8878 60.0113L51.8446 59.7956C51.7692 59.2577 51.5396 58.7531 51.1836 58.3429C50.8276 57.9326 50.3603 57.6342 49.8384 57.4838L49.5478 57.4181C49.0769 57.3347 48.6558 57.0745 48.3705 56.6908C48.0851 56.3071 47.9571 55.8289 48.0127 55.354C48.0683 54.8791 48.3032 54.4434 48.6694 54.1359C49.0356 53.8285 49.5054 53.6725 49.9828 53.7ZM49.9978 48C52.9814 48 55.8429 49.1853 57.9527 51.2951C60.0625 53.4048 61.2478 56.2663 61.2478 59.25C61.2472 59.7279 61.0642 60.1876 60.7362 60.5351C60.4081 60.8826 59.9597 61.0917 59.4827 61.1197C59.0056 61.1477 58.5358 60.9925 58.1693 60.6858C57.8029 60.379 57.5673 59.9439 57.5109 59.4694L57.4978 59.25C57.4976 57.3461 56.7733 55.5134 55.4717 54.1238C54.1702 52.7342 52.3889 51.8916 50.489 51.7669L49.9978 51.75C49.5005 51.75 49.0236 51.5525 48.6719 51.2008C48.3203 50.8492 48.1228 50.3723 48.1228 49.875C48.1228 49.3777 48.3203 48.9008 48.6719 48.5492C49.0236 48.1975 49.5005 48 49.9978 48Z"/>
</g>
<defs>
<filter color-interpolation-filters="sRGB" filterUnits="userSpaceOnUse" height="109.418" width="109.248" y="0" x="0" id="filter0_ddddd_85_32">
<feFlood result="BackgroundImageFix" flood-opacity="0"/>
<feColorMatrix result="hardAlpha" values="0 0 0 0 0 0 0 0 0 0 0 0 0 0 0 0 0 0 127 0" type="matrix" in="SourceAlpha"/>
<feOffset/>
<feGaussianBlur stdDeviation="1"/>
<feColorMatrix values="0 0 0 0 1 0 0 0 0 1 0 0 0 0 1 0 0 0 1 0" type="matrix"/>
<feBlend result="effect1_dropShadow_85_32" in2="BackgroundImageFix" mode="normal"/>
<feColorMatrix result="hardAlpha" values="0 0 0 0 0 0 0 0 0 0 0 0 0 0 0 0 0 0 127 0" type="matrix" in="SourceAlpha"/>
<feOffset/>
<feGaussianBlur stdDeviation="2"/>
<feColorMatrix values="0 0 0 0 1 0 0 0 0 1 0 0 0 0 1 0 0 0 1 0" type="matrix"/>
<feBlend result="effect2_dropShadow_85_32" in2="effect1_dropShadow_85_32" mode="normal"/>
<feColorMatrix result="hardAlpha" values="0 0 0 0 0 0 0 0 0 0 0 0 0 0 0 0 0 0 127 0" type="matrix" in="SourceAlpha"/>
<feOffset/>
<feGaussianBlur stdDeviation="7"/>
<feColorMatrix values="0 0 0 0 1 0 0 0 0 1 0 0 0 0 1 0 0 0 1 0" type="matrix"/>
<feBlend result="effect3_dropShadow_85_32" in2="effect2_dropShadow_85_32" mode="normal"/>
<feColorMatrix result="hardAlpha" values="0 0 0 0 0 0 0 0 0 0 0 0 0 0 0 0 0 0 127 0" type="matrix" in="SourceAlpha"/>
<feOffset/>
<feGaussianBlur stdDeviation="14"/>
<feColorMatrix values="0 0 0 0 1 0 0 0 0 1 0 0 0 0 1 0 0 0 1 0" type="matrix"/>
<feBlend result="effect4_dropShadow_85_32" in2="effect3_dropShadow_85_32" mode="normal"/>
<feColorMatrix result="hardAlpha" values="0 0 0 0 0 0 0 0 0 0 0 0 0 0 0 0 0 0 127 0" type="matrix" in="SourceAlpha"/>
<feOffset/>
<feGaussianBlur stdDeviation="24"/>
<feColorMatrix values="0 0 0 0 1 0 0 0 0 1 0 0 0 0 1 0 0 0 1 0" type="matrix"/>
<feBlend result="effect5_dropShadow_85_32" in2="effect4_dropShadow_85_32" mode="normal"/>
<feBlend result="shape" in2="effect5_dropShadow_85_32" in="SourceGraphic" mode="normal"/>
</filter>
</defs>
</svg>