<svg width="31" height="30" viewBox="0 0 31 30" fill="none" xmlns="http://www.w3.org/2000/svg">
<path d="M14.125 10.9487H14.5155V13.3212L13.8592 13.0829C13.5092 12.9565 13.2029 12.5644 13.2029 12.0393C13.2029 11.3555 13.6939 10.9487 14.125 10.9487ZM16.4828 18.489V16.1182L17.1391 16.3564C17.4891 16.4828 17.7954 16.8749 17.7954 17.3984C17.7954 18.0838 17.3028 18.489 16.8717 18.489H16.4828Z" fill="url(#paint0_linear_312_285)"/>
<path fill-rule="evenodd" clip-rule="evenodd" d="M10.5897 0.669747C13.8243 -0.0435615 17.1755 -0.0435615 20.41 0.669747L21.0874 0.818834C23.2993 1.30405 25.3319 2.39684 26.9566 3.97429C28.5813 5.55173 29.7336 7.55123 30.2838 9.74786C31.0983 13.0129 31.0983 16.4279 30.2838 19.6929C29.7333 21.8893 28.5809 23.8884 26.9563 25.4656C25.3316 27.0427 23.2991 28.1353 21.0874 28.6203L20.4117 28.7694C17.1761 29.4832 13.8237 29.4832 10.5881 28.7694L9.91237 28.6203C7.70055 28.135 5.66802 27.0421 4.04337 25.4647C2.41872 23.8873 1.26638 21.8879 0.715967 19.6913C-0.0983561 16.4263 -0.0983561 13.0113 0.715967 9.74623C1.26648 7.54991 2.41887 5.55075 4.04353 3.97361C5.6682 2.39647 7.70068 1.30392 9.91237 0.818834L10.5897 0.669747ZM16.4835 8.18892C16.4835 7.64767 16.0444 7.20851 15.4999 7.20851C14.9554 7.20851 14.5162 7.64605 14.5162 8.18892V8.98946H14.1273C12.4517 8.98946 11.2363 10.4382 11.2363 12.0393C11.2363 13.2984 11.9818 14.4862 13.1874 14.9238L14.5162 15.4067V18.4905H14.4061C13.8227 18.4905 13.2053 17.9476 13.2053 17.0953C13.205 16.9662 13.1794 16.8384 13.1297 16.7192C13.0801 16.6 13.0074 16.4918 12.9159 16.4008C12.8244 16.3097 12.7158 16.2376 12.5964 16.1885C12.477 16.1395 12.3491 16.1144 12.22 16.1148C12.091 16.1146 11.9633 16.1398 11.8441 16.189C11.7248 16.2381 11.6164 16.3103 11.5251 16.4013C11.4338 16.4924 11.3613 16.6005 11.3117 16.7196C11.2622 16.8386 11.2365 16.9663 11.2363 17.0953C11.2363 18.8649 12.5781 20.4497 14.4077 20.4497H14.5162V21.2503C14.5162 21.5111 14.6199 21.7613 14.8044 21.9458C14.9888 22.1303 15.239 22.2339 15.4999 22.2339C15.7608 22.2339 16.011 22.1303 16.1954 21.9458C16.3799 21.7613 16.4835 21.5111 16.4835 21.2503V20.4497H16.8725C18.5481 20.4497 19.7635 19.001 19.7635 17.3999C19.7635 16.1408 19.018 14.9529 17.8124 14.5154L16.4835 14.0341V10.9487H16.5937C17.1771 10.9487 17.7962 11.4915 17.7962 12.3439C17.7962 12.8852 18.2353 13.3243 18.7798 13.3243C19.3243 13.3243 19.7635 12.8868 19.7635 12.3439C19.7635 10.5743 18.4233 8.98946 16.5937 8.98946H16.4835V8.18892Z" fill="url(#paint1_linear_312_285)"/>
<defs>
<linearGradient id="paint0_linear_312_285" x1="15.4991" y1="10.9487" x2="15.4991" y2="18.489" gradientUnits="userSpaceOnUse">
<stop stop-color="white"/>
<stop offset="1" stop-color="#9AA2FB"/>
</linearGradient>
<linearGradient id="paint1_linear_312_285" x1="15.4999" y1="0.134766" x2="15.4999" y2="29.3048" gradientUnits="userSpaceOnUse">
<stop stop-color="white"/>
<stop offset="1" stop-color="#9AA2FB"/>
</linearGradient>
</defs>
</svg>
