<svg width="227" height="61" viewBox="0 0 227 61" fill="none" xmlns="http://www.w3.org/2000/svg">
<path d="M23.0117 16.2034C23.0117 26.3036 23.0117 36.4038 23.0117 46.8101C17.5705 46.8101 17.5705 46.8101 15.5026 45.0783C15.1605 44.7174 14.852 44.3814 14.5484 43.995C14.4725 43.9026 14.3966 43.8102 14.3184 43.715C14.0045 43.3328 13.6952 42.9471 13.3859 42.5612C13.1551 42.2747 12.9219 41.9902 12.6886 41.7057C12.6236 41.6227 12.5586 41.5398 12.4917 41.4543C11.6482 40.4269 10.7022 39.7633 9.63545 38.8751C6.82983 38.8189 6.82983 38.8189 3.96753 38.7617C3.96753 33.9734 3.96753 29.1852 3.96753 24.2518C6.82926 24.1957 6.82926 24.1957 9.74881 24.1385C11.4157 22.8151 11.4157 22.8151 12.8175 21.3078C12.893 21.2156 12.9685 21.1233 13.0463 21.0282C13.281 20.7416 13.5131 20.453 13.7447 20.1638C14.2823 19.4948 14.8289 18.8387 15.4024 18.2001C15.6224 17.9452 15.8191 17.6811 16.0187 17.4103C17.9283 15.2453 19.9567 16.2034 23.0117 16.2034ZM17.5378 18.9705C17.2917 19.2125 17.2917 19.2125 17.1013 19.4508C16.7973 19.8112 16.4882 20.1632 16.167 20.5086C15.4769 21.2538 14.8028 22.0126 14.1376 22.7801C13.7272 23.2523 13.3058 23.7121 12.8765 24.1671C12.718 24.3397 12.5639 24.5164 12.415 24.6974C11.8238 25.4154 11.4038 25.6483 10.5423 26.1789C9.04598 26.2163 7.54965 26.2537 6.00798 26.2923C6.00798 29.7338 6.00798 33.1754 6.00798 36.7212C7.50431 36.7587 9.00064 36.7961 10.5423 36.8346C11.4787 37.4135 12.0013 37.8071 12.662 38.6063C12.8291 38.7877 12.9974 38.968 13.1668 39.1471C13.6036 39.6138 14.0264 40.0911 14.4459 40.5733C15.1211 41.3472 15.8118 42.1063 16.5118 42.8578C16.7511 43.1198 16.9806 43.3883 17.2102 43.6588C17.3577 43.8215 17.5055 43.9839 17.6536 44.146C17.7132 44.2211 17.7728 44.2962 17.8342 44.3735C18.0615 44.6328 18.0615 44.6328 18.5908 44.883C19.3763 44.883 20.1619 44.883 20.9713 44.883C20.9713 36.0921 20.9713 27.3012 20.9713 18.2438C18.6082 17.9896 18.6082 17.9896 17.5378 18.9705Z" fill="white"/>
<path d="M73.4563 19.2641C73.5623 19.3121 73.6682 19.3602 73.7773 19.4098C75.5643 20.307 76.7216 21.6604 77.5372 23.4583C76.7815 23.9965 75.9933 24.4194 75.1567 24.8186C75.0846 24.7136 75.0846 24.7136 75.011 24.6065C74.7972 24.2978 74.5806 23.9913 74.3632 23.685C74.2674 23.5472 74.2674 23.5472 74.1697 23.4065C73.4389 22.402 72.4253 21.7343 71.1891 21.5312C70.0025 21.4419 69.067 21.5823 68.0293 22.1689C67.4137 22.8569 67.1252 23.5925 67.1747 24.5166C67.3143 25.4151 67.7862 26.155 68.4685 26.7457C69.3895 27.3877 70.3866 27.7993 71.4274 28.2037C74.7155 29.4876 74.7155 29.4876 75.9502 30.7133C76.0249 30.785 76.0995 30.8568 76.1765 30.9307C77.3782 32.1841 77.7471 33.7869 77.7639 35.4743C77.6683 37.0351 77.1236 38.298 76.0636 39.4419C75.9988 39.5127 75.9341 39.5836 75.8674 39.6566C74.5636 40.9316 72.6824 41.4771 70.9057 41.5248C68.9327 41.4719 67.0996 40.7795 65.6346 39.4419C65.5444 39.3608 65.4543 39.2797 65.3614 39.1961C64.4571 38.3393 63.4808 37.2178 63.0273 36.0411C63.1612 35.6512 63.3543 35.4859 63.6978 35.2706C63.784 35.2158 63.8702 35.161 63.959 35.1046C64.049 35.0489 64.139 34.9932 64.2318 34.9359C64.3227 34.8784 64.4136 34.821 64.5072 34.7618C64.7313 34.6205 64.9559 34.4802 65.1812 34.3407C65.4982 34.7247 65.7732 35.117 66.0384 35.5381C67.0704 37.0908 68.2914 38.2885 70.1618 38.7263C71.4721 38.86 72.6359 38.6971 73.683 37.8548C73.7578 37.8548 73.8327 37.8548 73.9097 37.8548C73.9518 37.7672 73.9518 37.7672 73.9948 37.6777C74.1472 37.3805 74.3153 37.0958 74.4876 36.8098C74.8736 36.0478 74.8087 35.0132 74.6178 34.2061C74.1548 32.8697 73.2528 32.2362 72.0156 31.6273C71.1982 31.2383 70.3656 30.9074 69.5171 30.5928C67.4653 29.8293 65.4615 28.7715 64.501 26.6957C63.922 25.2141 64.0502 23.5994 64.6179 22.137C65.3005 20.6427 66.4982 19.7914 67.9629 19.1308C69.6521 18.565 71.8219 18.5156 73.4563 19.2641Z" fill="white"/>
<path d="M201.081 27.6604C202.548 28.8985 203.274 30.6485 203.478 32.5269C203.478 33.2002 203.478 33.8736 203.478 34.5673C199.737 34.5673 195.997 34.5673 192.142 34.5673C192.617 36.7175 192.617 36.7175 194.034 38.2727C195.241 38.9657 196.622 39.068 197.974 38.7966C199.052 38.4672 199.867 37.9251 200.576 37.0532C200.773 36.8162 200.993 36.5991 201.211 36.381C201.884 36.7925 202.558 37.204 203.252 37.628C202.671 39.0797 201.402 40.1225 200.014 40.7879C197.949 41.6521 195.728 41.7531 193.616 41.0287C191.985 40.3511 190.726 39.0262 190.01 37.4225C189.148 35.1425 189.132 32.6063 190.025 30.3319C190.86 28.5371 192.218 27.314 194.07 26.6322C196.445 25.8967 199.046 26.1849 201.081 27.6604ZM193.487 29.6725C192.767 30.4442 192.404 31.2625 192.256 32.3001C195.024 32.3001 197.792 32.3001 200.644 32.3001C200.397 31.0616 200.088 30.0743 199.063 29.2988C197.36 28.1876 195.045 28.3456 193.487 29.6725Z" fill="white"/>
<path d="M176.726 16.543C177.586 16.543 178.446 16.543 179.333 16.543C179.37 21.4434 179.408 26.3439 179.446 31.3929C180.877 30.0468 180.877 30.0468 182.28 28.6723C182.5 28.481 182.721 28.29 182.947 28.1064C183.204 27.8799 183.204 27.8799 183.402 27.552C183.705 27.137 183.956 26.8266 184.434 26.6319C185.554 26.4717 186.71 26.5557 187.835 26.6319C187.403 27.1564 186.952 27.6316 186.446 28.0843C185.979 28.5084 185.522 28.9383 185.079 29.3879C184.765 29.7061 184.448 30.0118 184.108 30.3018C183.635 30.7055 183.202 31.1452 182.768 31.5899C182.434 31.9293 182.091 32.2371 181.713 32.5265C181.906 32.9719 182.2 33.3331 182.5 33.7097C182.555 33.7795 182.61 33.8494 182.667 33.9213C183.089 34.4521 183.525 34.9704 183.966 35.4855C184.397 35.9907 184.806 36.5106 185.213 37.0347C185.567 37.4873 185.931 37.9283 186.304 38.3645C186.752 38.8878 187.188 39.4185 187.615 39.9586C187.668 40.0247 187.721 40.0909 187.775 40.1591C188.023 40.4752 188.229 40.7795 188.401 41.1417C185.646 41.4464 185.646 41.4464 184.819 40.9727C184.337 40.5394 184 40.0137 183.674 39.4574C183.472 39.1234 183.236 38.8444 182.982 38.5487C182.823 38.355 182.665 38.1614 182.507 37.9677C182.429 37.8723 182.351 37.7769 182.27 37.6785C181.69 36.9701 181.112 36.2598 180.535 35.5483C180.475 35.4751 180.416 35.4018 180.355 35.3264C180.276 35.2296 180.276 35.2296 180.196 35.1309C179.948 34.828 179.697 34.5277 179.446 34.2269C179.409 36.5088 179.371 38.7907 179.333 41.1417C178.472 41.1417 177.612 41.1417 176.726 41.1417C176.726 33.0241 176.726 24.9065 176.726 16.543Z" fill="white"/>
<path d="M92.4359 27.8356C93.513 28.7544 94.2645 29.8448 94.7677 31.1664C94.8223 31.3078 94.8223 31.3078 94.878 31.452C95.5114 33.4642 95.222 35.841 94.3072 37.7058C93.3178 39.4245 91.7602 40.7138 89.8402 41.2522C87.7435 41.7257 85.5149 41.5953 83.6373 40.4724C81.9112 39.3633 80.7765 37.8051 80.2578 35.8141C79.8371 33.86 80.0544 31.5915 81.0859 29.8655C82.3155 28.0352 83.8003 26.9821 85.9258 26.4054C88.1964 26.0011 90.6033 26.3753 92.4359 27.8356ZM84.4521 29.9195C84.3493 30.0048 84.3493 30.0048 84.2444 30.0917C83.2492 30.9829 82.8248 32.2318 82.7274 33.5319C82.6774 35.0701 83.1314 36.5012 84.1687 37.6562C85.2698 38.6892 86.6157 39.0485 88.0875 39.0196C89.1547 38.9443 90.0092 38.5632 90.8002 37.8546C90.8687 37.7977 90.9372 37.7409 91.0078 37.6823C91.9717 36.8192 92.441 35.5796 92.5249 34.3126C92.5638 32.8924 92.296 31.7676 91.4803 30.5996C91.3985 30.4804 91.3167 30.3612 91.2323 30.2383C90.2188 29.2248 89.0569 28.7617 87.6403 28.7363C86.3948 28.7455 85.3801 29.0882 84.4521 29.9195Z" fill="white"/>
<path d="M48.4043 1.35352C48.9654 1.35352 49.5265 1.35352 50.1047 1.35352C50.1047 20.5439 50.1047 39.7344 50.1047 59.5063C49.5435 59.5063 48.9824 59.5063 48.4043 59.5063C48.4043 40.3159 48.4043 21.1255 48.4043 1.35352Z" fill="white"/>
<path d="M170.379 27.2352C171.608 28.2741 172.159 29.6976 172.305 31.2803C172.319 31.6165 172.319 31.952 172.318 32.2885C172.318 32.3849 172.318 32.4812 172.318 32.5804C172.318 32.8957 172.317 33.2109 172.316 33.5262C172.316 33.746 172.316 33.9658 172.316 34.1856C172.315 34.7618 172.314 35.3381 172.313 35.9143C172.312 36.5032 172.311 37.0921 172.311 37.681C172.309 38.8348 172.307 39.9886 172.305 41.1424C171.445 41.1424 170.584 41.1424 169.698 41.1424C169.694 40.7411 169.694 40.7411 169.691 40.3316C169.683 39.4429 169.675 38.5543 169.665 37.6657C169.659 37.1275 169.654 36.5892 169.65 36.0509C169.646 35.5305 169.64 35.0102 169.634 34.4898C169.632 34.2922 169.631 34.0947 169.629 33.8971C169.686 31.6013 169.686 31.6013 168.722 29.6082C167.98 28.927 167.237 28.8477 166.253 28.8643C165.393 28.9387 164.607 29.2264 163.973 29.8248C163.273 30.6829 163.108 31.5845 163.1 32.6617C163.098 32.7995 163.098 32.7995 163.096 32.9401C163.093 33.2425 163.09 33.5448 163.087 33.8472C163.085 34.0573 163.082 34.2675 163.08 34.4776C163.074 35.0298 163.068 35.582 163.063 36.1342C163.057 36.698 163.051 37.2618 163.044 37.8256C163.032 38.9312 163.021 40.0368 163.01 41.1424C162.149 41.1424 161.289 41.1424 160.402 41.1424C160.402 36.3542 160.402 31.5659 160.402 26.6326C161.263 26.6326 162.123 26.6326 163.01 26.6326C163.066 27.5304 163.066 27.5304 163.123 28.4463C163.228 28.2943 163.333 28.1424 163.442 27.9858C165.077 25.8965 168.29 25.7011 170.379 27.2352Z" fill="white"/>
<path d="M108.485 27.2352C109.779 28.3285 110.22 29.7515 110.411 31.3936C110.465 32.1625 110.451 32.9331 110.445 33.7033C110.444 33.9193 110.444 34.1353 110.443 34.3512C110.442 34.9133 110.439 35.4753 110.435 36.0373C110.431 36.6134 110.43 37.1895 110.428 37.7656C110.424 38.8912 110.418 40.0168 110.411 41.1424C109.551 41.1424 108.691 41.1424 107.804 41.1424C107.801 40.7471 107.801 40.7471 107.797 40.3438C107.79 39.4678 107.781 38.5919 107.772 37.7159C107.766 37.1854 107.761 36.6549 107.756 36.1244C107.752 35.6114 107.747 35.0983 107.741 34.5853C107.739 34.3907 107.737 34.1961 107.736 34.0014C107.8 31.6498 107.8 31.6498 106.829 29.6087C106.088 28.9266 105.343 28.8477 104.359 28.8643C103.499 28.9387 102.713 29.2264 102.08 29.8248C101.38 30.6829 101.214 31.5845 101.206 32.6617C101.204 32.7995 101.204 32.7995 101.203 32.9401C101.199 33.2425 101.196 33.5448 101.194 33.8472C101.191 34.0573 101.189 34.2675 101.186 34.4776C101.18 35.0298 101.175 35.582 101.169 36.1342C101.163 36.698 101.157 37.2618 101.151 37.8256C101.139 38.9312 101.127 40.0368 101.116 41.1424C100.256 41.1424 99.3953 41.1424 98.5088 41.1424C98.5088 36.3542 98.5088 31.5659 98.5088 26.6326C99.3692 26.6326 100.23 26.6326 101.116 26.6326C101.172 27.5304 101.172 27.5304 101.229 28.4463C101.335 28.2943 101.44 28.1424 101.548 27.9858C103.183 25.8965 106.396 25.7011 108.485 27.2352Z" fill="white"/>
<path d="M138.297 19.0371C139.195 19.0371 140.092 19.0371 141.017 19.0371C141.017 25.4713 141.017 31.9055 141.017 38.5347C143.861 38.5347 146.704 38.5347 149.633 38.5347C149.633 39.3951 149.633 40.2555 149.633 41.142C145.892 41.142 142.151 41.142 138.297 41.142C138.297 33.8474 138.297 26.5528 138.297 19.0371Z" fill="white"/>
<path d="M133.931 27.7284C134.328 28.0756 134.328 28.0756 134.356 28.4337C134.355 28.5702 134.353 28.7067 134.352 28.8474C134.351 28.995 134.351 29.1426 134.35 29.2946C134.348 29.4511 134.346 29.6076 134.344 29.764C134.343 29.9214 134.342 30.0787 134.341 30.2361C134.338 30.6219 134.335 31.0077 134.33 31.3935C134.061 31.1279 133.819 30.8675 133.593 30.5646C132.726 29.5539 131.312 29.0134 130.013 28.8744C128.647 28.7759 127.348 28.9388 126.259 29.842C125.149 30.88 124.559 32.0124 124.443 33.5332C124.396 35.0319 124.825 36.462 125.828 37.5999C126.932 38.6246 128.306 38.9333 129.764 38.9066C130.953 38.8528 132.008 38.4245 132.97 37.7416C133.036 37.6949 133.102 37.6481 133.17 37.5999C133.618 37.255 133.901 36.842 134.217 36.3813C134.254 36.3813 134.291 36.3813 134.33 36.3813C134.353 36.8349 134.369 37.2882 134.38 37.7423C134.384 37.8963 134.391 38.0504 134.398 38.2043C134.462 39.4746 134.462 39.4746 134.145 39.9406C133.915 40.1478 133.691 40.3077 133.423 40.4622C133.318 40.5248 133.214 40.5873 133.106 40.6517C130.835 41.6265 128.506 41.7815 126.161 40.9582C124.319 40.1584 122.911 38.6703 122.168 36.81C121.472 34.7919 121.463 32.356 122.393 30.4065C123.33 28.5882 124.793 27.2786 126.728 26.6325C129.07 25.8986 131.975 26.1648 133.931 27.7284Z" fill="white"/>
<path d="M26.4121 20.2842C28.4399 20.34 30.2242 20.7608 31.999 21.7617C32.1707 21.8584 32.3448 21.9506 32.5193 22.0421C34.1233 22.9539 35.3881 24.4708 36.2743 26.0655C36.3569 26.2075 36.3569 26.2075 36.4412 26.3524C37.8504 28.938 37.9597 32.0151 37.1989 34.8047C36.7461 36.2879 36.005 37.5656 35.0273 38.7616C34.9565 38.8512 34.8856 38.9407 34.8126 39.033C33.0511 41.1505 30.3764 42.3442 27.6909 42.6995C27.2659 42.7334 26.8385 42.7291 26.4121 42.7291C26.4121 42.0932 26.4121 41.4573 26.4121 40.802C26.5629 40.7854 26.7137 40.7687 26.8691 40.7516C29.4968 40.4356 31.8202 39.5273 33.5749 37.4367C35.2301 35.2354 35.9143 32.7328 35.5583 29.9826C35.4621 29.456 35.3128 28.9531 35.1407 28.446C35.101 28.3267 35.0612 28.2075 35.0203 28.0847C34.1175 25.6774 32.2269 24.0225 29.9404 22.9694C28.8105 22.5058 27.6245 22.3176 26.4121 22.2113C26.4121 21.5753 26.4121 20.9394 26.4121 20.2842Z" fill="white"/>
<path d="M214.607 26.7807C214.795 26.913 214.975 27.0549 215.154 27.1987C215.1 27.7861 214.794 28.181 214.467 28.6511C214.413 28.7297 214.36 28.8082 214.305 28.8891C214.173 29.0819 214.04 29.274 213.907 29.4659C213.58 29.3899 213.343 29.294 213.057 29.1187C212.377 28.7726 211.65 28.7907 210.918 28.962C210.306 29.2048 210.082 29.6157 209.816 30.1987C209.597 30.8092 209.581 31.4 209.576 32.0434C209.575 32.1911 209.575 32.1911 209.573 32.3418C209.569 32.6663 209.566 32.9907 209.564 33.3152C209.561 33.5406 209.559 33.766 209.557 33.9914C209.55 34.5838 209.545 35.1762 209.539 35.7686C209.533 36.3735 209.527 36.9783 209.521 37.5832C209.509 38.7694 209.497 39.9556 209.486 41.1418C208.626 41.1418 207.765 41.1418 206.879 41.1418C206.879 36.3535 206.879 31.5653 206.879 26.6319C207.739 26.6319 208.6 26.6319 209.486 26.6319C209.524 27.0434 209.561 27.4549 209.6 27.8789C209.693 27.7596 209.787 27.6404 209.883 27.5175C211.057 26.15 213.051 25.8422 214.607 26.7807Z" fill="white"/>
<path d="M152.693 26.6318C153.554 26.6318 154.414 26.6318 155.301 26.6318C155.301 31.4201 155.301 36.2083 155.301 41.1417C154.44 41.1417 153.58 41.1417 152.693 41.1417C152.693 36.3534 152.693 31.5652 152.693 26.6318Z" fill="white"/>
<path d="M115.398 26.6318C116.259 26.6318 117.119 26.6318 118.006 26.6318C118.006 31.4201 118.006 36.2083 118.006 41.1417C117.145 41.1417 116.285 41.1417 115.398 41.1417C115.398 36.3534 115.398 31.5652 115.398 26.6318Z" fill="white"/>
<path d="M26.4121 26.1788C28.0946 26.117 29.3702 26.4057 30.7162 27.4926C31.8632 28.5616 32.3848 29.987 32.4484 31.5279C32.4254 33.033 31.8001 34.3583 30.7791 35.437C29.4406 36.6718 28.1559 36.8746 26.4121 36.9478C26.4121 36.2745 26.4121 35.6011 26.4121 34.9074C26.5945 34.898 26.7768 34.8887 26.9647 34.879C27.9823 34.7835 28.9049 34.4492 29.5861 33.6604C30.2067 32.7337 30.3649 31.9383 30.2663 30.8265C30.0303 29.9083 29.5999 29.2292 28.8068 28.701C28.0432 28.2565 27.2779 28.177 26.4121 28.1059C26.4121 27.4699 26.4121 26.834 26.4121 26.1788Z" fill="white"/>
<path d="M117.574 19.0511C118.011 19.3427 118.365 19.6442 118.527 20.1616C118.617 20.6995 118.574 21.1423 118.346 21.6441C118.003 22.1002 117.669 22.393 117.101 22.5032C116.569 22.5217 116.173 22.4781 115.682 22.2676C115.207 21.7925 114.976 21.3342 114.896 20.6664C114.973 20.0673 115.172 19.6784 115.625 19.2849C116.239 18.8374 116.872 18.8033 117.574 19.0511Z" fill="white"/>
<path d="M154.876 19.0586C155.281 19.3252 155.538 19.6251 155.755 20.0576C155.815 20.663 155.832 21.1546 155.549 21.7013C155.426 21.8416 155.426 21.8416 155.301 21.9847C155.243 22.0525 155.184 22.1203 155.124 22.1902C154.718 22.526 154.191 22.4824 153.691 22.4771C153.204 22.4172 152.911 22.227 152.581 21.8713C152.205 21.3379 152.138 20.8056 152.241 20.171C152.785 19.1023 153.735 18.6417 154.876 19.0586Z" fill="white"/>
</svg>
