<svg width="34" height="35" viewBox="0 0 34 35" fill="none" xmlns="http://www.w3.org/2000/svg">
<path fill-rule="evenodd" clip-rule="evenodd" d="M15.6272 4.69158C15.5116 5.1351 15.0816 6.36352 14.8652 6.86349C13.4808 10.0697 11.1091 12.7502 8.09544 14.5149C7.06056 15.121 5.60501 15.7487 4.46933 16.0793L3.96533 16.2258V18.1853L4.15752 18.2337C4.64405 18.3601 5.88188 18.8022 6.46652 19.0603C7.7675 19.6473 8.99161 20.3916 10.1114 21.2765C10.7485 21.7846 12.075 23.1111 12.5844 23.7482C13.8119 25.285 14.7541 27.0293 15.3665 28.8984C15.5157 29.3594 15.6554 29.7827 15.6769 29.8392L15.7173 29.94L16.6688 29.9279L17.6231 29.9158L17.8381 29.2182C18.4441 27.2466 19.4147 25.4062 20.6995 23.7925C21.2169 23.1434 22.3123 22.0292 22.9964 21.4553C24.2174 20.4369 25.5802 19.6015 27.0418 18.9756C27.5082 18.7754 28.7487 18.3439 29.1694 18.2337L29.3616 18.184V16.2204L29.0578 16.1398C28.5095 15.9919 27.4585 15.6156 26.8402 15.3428C22.956 13.6174 19.8947 10.4496 18.3031 6.50867C18.1082 6.02886 17.7413 4.9335 17.6782 4.64589L17.6473 4.49805H15.6756L15.6272 4.69158ZM25.6978 5.20365C25.6588 5.48589 25.4236 6.02349 25.1831 6.37696C24.585 7.25728 23.7302 7.85939 22.7639 8.07981C22.6429 8.10803 22.659 8.11878 22.9507 8.1927C23.5703 8.35264 24.1697 8.72358 24.7033 9.27866C25.214 9.81088 25.5177 10.3243 25.6682 10.9103C25.7422 11.1992 25.7529 11.218 25.7798 11.0957C25.8645 10.714 26.015 10.3203 26.1978 10.0071C26.4666 9.54611 27.1883 8.81766 27.6318 8.56096C27.9786 8.3607 28.5565 8.14835 28.7608 8.14566C28.9288 8.14432 28.8199 8.08115 28.5726 8.0368C27.9208 7.91853 26.9934 7.27072 26.4491 6.55437C26.2085 6.23718 25.8712 5.55174 25.8241 5.28832C25.7731 4.99398 25.7301 4.96576 25.6978 5.20365ZM16.9107 8.3607C17.0344 8.62547 17.2857 9.10662 17.4685 9.42918C19.2748 12.6225 22.0515 15.2554 25.2731 16.8292C25.6615 17.0188 25.9801 17.1854 25.9814 17.1975C25.9827 17.2096 25.6965 17.3615 25.343 17.5348C21.6712 19.3412 18.5907 22.4606 16.8798 26.1042L16.6621 26.5692L16.3476 25.9335C16.0022 25.2132 15.6024 24.5204 15.1514 23.8611C13.8074 21.8074 12.0535 20.0536 9.99989 18.7095C9.33686 18.2554 8.63945 17.8537 7.914 17.508L7.29039 17.2042L7.8038 16.9596C11.4514 15.2259 14.5144 12.1898 16.3248 8.51526C16.4981 8.16448 16.65 7.87686 16.6621 7.87821C16.6755 7.87821 16.7871 8.09594 16.9107 8.3607Z" fill="#4F5DF5"/>
</svg>
