<svg width="21" height="30" viewBox="0 0 21 30" fill="none" xmlns="http://www.w3.org/2000/svg">
<path fill-rule="evenodd" clip-rule="evenodd" d="M0.580351 2.03206C1.45827 0.13623 4.47264 0.13623 10.4999 0.13623C16.5272 0.13623 19.5416 0.13623 20.4195 2.03206C20.4954 2.19248 20.5581 2.36311 20.6091 2.53665C21.207 4.55936 19.0749 6.90436 14.8137 11.5929L11.9583 14.7196L14.8137 17.8448C19.0749 22.5348 21.2056 24.8798 20.6091 26.901C20.5585 27.0746 20.4952 27.2443 20.4195 27.4085C19.5401 29.3029 16.5272 29.3029 10.4999 29.3029C4.47264 29.3029 1.45827 29.3029 0.580351 27.4071C0.504909 27.2437 0.441545 27.0751 0.390767 26.9025C-0.20715 24.8798 1.92493 22.5348 6.18618 17.8462L9.0416 14.7196L6.18618 11.5944C1.92493 6.9029 -0.204233 4.55936 0.390767 2.53811C0.441809 2.36311 0.504517 2.1954 0.580351 2.03206ZM7.58327 23.105C7.29319 23.105 7.01499 23.2202 6.80987 23.4253C6.60475 23.6304 6.48952 23.9087 6.48952 24.1987C6.48952 24.4888 6.60475 24.767 6.80987 24.9721C7.01499 25.1772 7.29319 25.2925 7.58327 25.2925H13.4166C13.7067 25.2925 13.9849 25.1772 14.19 24.9721C14.3951 24.767 14.5104 24.4888 14.5104 24.1987C14.5104 23.9087 14.3951 23.6304 14.19 23.4253C13.9849 23.2202 13.7067 23.105 13.4166 23.105H7.58327ZM6.48952 5.2404C6.48952 4.95032 6.60475 4.67212 6.80987 4.467C7.01499 4.26188 7.29319 4.14665 7.58327 4.14665H13.4166C13.7067 4.14665 13.9849 4.26188 14.19 4.467C14.3951 4.67212 14.5104 4.95032 14.5104 5.2404C14.5104 5.53048 14.3951 5.80868 14.19 6.0138C13.9849 6.21891 13.7067 6.33415 13.4166 6.33415H7.58327C7.29319 6.33415 7.01499 6.21891 6.80987 6.0138C6.60475 5.80868 6.48952 5.53048 6.48952 5.2404Z" fill="url(#paint0_linear_312_276)"/>
<defs>
<linearGradient id="paint0_linear_312_276" x1="10.4999" y1="0.13623" x2="10.4999" y2="29.3029" gradientUnits="userSpaceOnUse">
<stop stop-color="white"/>
<stop offset="1" stop-color="#9AA2FB"/>
</linearGradient>
</defs>
</svg>
