<svg width="145" height="26" viewBox="0 0 145 26" fill="none" xmlns="http://www.w3.org/2000/svg">
<path fill-rule="evenodd" clip-rule="evenodd" d="M72.7992 12.7759C72.7992 5.7305 78.5097 0.0200195 85.555 0.0200195C92.6004 0.0200195 98.3192 5.7305 98.3192 12.7759C98.3192 19.8213 92.6087 25.5318 85.555 25.5318C78.5097 25.54 72.7992 19.8295 72.7992 12.7759ZM85.555 20.8596C89.4939 20.8596 92.6828 17.2421 92.6828 12.7759C92.6828 8.31793 89.4939 4.69223 85.555 4.69223C81.6162 4.69223 78.4272 8.30969 78.4272 12.7759C78.4355 17.2421 81.6245 20.8596 85.555 20.8596ZM112.797 5.33497V24.9632H107.416V5.33497H107.433H99.9178V0.901724H120.296V5.33497H112.797ZM126.797 19.5494L124.729 24.9632H118.45L128.38 0.901724H135.071L145 24.9632H138.721L136.661 19.5576L136.653 19.5494H126.797ZM131.725 15.4869H135.112L131.75 6.67813H131.7L128.338 15.4869H131.725ZM13.692 5.33497V24.9632H8.31111V5.33497H8.32759H0.8125V0.901724H21.1906V5.33497H13.692ZM22.5667 12.7759C22.5667 5.7305 28.2772 0.0200195 35.3308 0.0200195C42.3762 0.0200195 48.0949 5.7305 48.0949 12.7759C48.0949 19.8213 42.3845 25.5318 35.3308 25.5318C28.2772 25.54 22.5667 19.8295 22.5667 12.7759ZM35.3308 20.8596C39.2614 20.8596 42.4586 17.2421 42.4586 12.7759C42.4586 8.31793 39.2697 4.69223 35.3308 4.69223C31.392 4.69223 28.203 8.30969 28.203 12.7759C28.203 17.2421 31.392 20.8596 35.3308 20.8596ZM60.4388 24.9632H63.1663V15.8248L72.5437 0.901724H66.2647L60.4388 11.0125L54.613 0.901724H48.3339L57.7113 15.8248V24.9632H60.4388Z" fill="#85889E"/>
</svg>
