<svg width="71" height="71" viewBox="0 0 71 71" fill="none" xmlns="http://www.w3.org/2000/svg">
<path d="M71 35.5C71 15.8939 55.1061 0 35.5 0C25.493 0 16.4531 4.1405 10 10.8018L21 25L18 27.5L7.24873 14C2.70065 19.9671 0 27.4182 0 35.5C0 45.0991 3.80988 53.8084 10 60.1982L62 59.1226C67.5979 52.8472 71 44.5709 71 35.5Z" fill="#595BDA"/>
<path d="M35.5 71C44.0174 71 51.8342 68.0004 57.9517 63L14.5 64.1255C20.381 68.4471 27.6423 71 35.5 71Z" fill="#595BDA"/>
<path d="M44.1011 19.7261C43.625 20.2022 43.625 20.9676 43.625 22.5V43.625C43.625 45.1574 43.625 45.9228 44.1011 46.3989C44.5772 46.875 45.3426 46.875 46.875 46.875C48.4074 46.875 49.1728 46.875 49.6489 46.3989C50.125 45.9228 50.125 45.1574 50.125 43.625V22.5C50.125 20.9676 50.125 20.2022 49.6489 19.7261C49.1728 19.25 48.4074 19.25 46.875 19.25C45.3426 19.25 44.5772 19.25 44.1011 19.7261ZM32.25 27.375C32.25 25.8426 32.25 25.0773 32.7261 24.6011C33.2023 24.125 33.9676 24.125 35.5 24.125C37.0324 24.125 37.7977 24.125 38.2739 24.6011C38.75 25.0773 38.75 25.8426 38.75 27.375V43.625C38.75 45.1574 38.75 45.9228 38.2739 46.3989C37.7977 46.875 37.0324 46.875 35.5 46.875C33.9676 46.875 33.2023 46.875 32.7261 46.3989C32.25 45.9228 32.25 45.1574 32.25 43.625V27.375ZM21.3511 31.1011C20.875 31.5773 20.875 32.3426 20.875 33.875V43.625C20.875 45.1574 20.875 45.9228 21.3511 46.3989C21.8272 46.875 22.5926 46.875 24.125 46.875C25.6574 46.875 26.4227 46.875 26.8989 46.3989C27.375 45.9228 27.375 45.1574 27.375 43.625V33.875C27.375 32.3426 27.375 31.5773 26.8989 31.1011C26.4227 30.625 25.6574 30.625 24.125 30.625C22.5926 30.625 21.8272 30.625 21.3511 31.1011ZM20.875 50.5312C20.5518 50.5312 20.2418 50.6597 20.0132 50.8882C19.7847 51.1168 19.6562 51.4268 19.6562 51.75C19.6562 52.0732 19.7847 52.3832 20.0132 52.6118C20.2418 52.8403 20.5518 52.9688 20.875 52.9688H50.125C50.4482 52.9688 50.7582 52.8403 50.9868 52.6118C51.2153 52.3832 51.3438 52.0732 51.3438 51.75C51.3438 51.4268 51.2153 51.1168 50.9868 50.8882C50.7582 50.6597 50.4482 50.5312 50.125 50.5312H20.875Z" fill="white"/>
</svg>
