<svg width="71" height="71" viewBox="0 0 71 71" fill="none" xmlns="http://www.w3.org/2000/svg">
<circle cx="35.5" cy="35.5" r="35.5" fill="white"/>
<path d="M21 3.08665C8.62253 8.63214 0 21.0591 0 35.5C0 40.4716 1.02196 45.2044 2.86726 49.5L33.6762 17.2548L21 3.08665Z" fill="#5759DA"/>
<path d="M66.1048 53.5C59.9318 63.973 48.5365 71 35.5 71C29.0255 71 21.844 69.2368 16.5 66L0.5 70L6 55.1017C5.07324 53.7841 4.2366 52.4131 3.5 51L35 18.5L66.1048 53.5Z" fill="#5759DA"/>
<path d="M67 51.8865C69.5554 46.9843 71 41.9109 71 36C71 20.5 62.5 8.5 49.5 3L36 17.5L67 51.8865Z" fill="#5759DA"/>
<path d="M35.5 0C30.9113 0 26.5259 0.870631 22.5 2.45572L34.7814 16.098L48 2.26323C44.112 0.800289 39.8995 0 35.5 0Z" fill="#5759DA"/>
<path d="M47.6563 56C45.8263 56 43.2556 55.3381 39.4063 53.1875C34.7253 50.5625 31.1047 48.1391 26.4491 43.4956C21.9603 39.0097 19.7759 36.1053 16.7188 30.5422C13.265 24.2609 13.8538 20.9684 14.5119 19.5613C15.2956 17.8794 16.4525 16.8734 17.9478 15.875C18.7972 15.3185 19.696 14.8415 20.6328 14.45C20.7266 14.4097 20.8138 14.3712 20.8916 14.3366C21.3556 14.1275 22.0588 13.8116 22.9494 14.1491C23.5438 14.3722 24.0744 14.8288 24.905 15.6491C26.6084 17.3291 28.9363 21.0706 29.795 22.9081C30.3716 24.1466 30.7531 24.9641 30.7541 25.8809C30.7541 26.9544 30.2141 27.7822 29.5588 28.6756C29.4359 28.8434 29.3141 29.0038 29.1959 29.1594C28.4825 30.0969 28.3259 30.3678 28.4291 30.8516C28.6381 31.8238 30.1972 34.7178 32.7594 37.2744C35.3216 39.8309 38.1322 41.2916 39.1081 41.4997C39.6125 41.6075 39.8891 41.4444 40.8566 40.7056C40.9953 40.5997 41.1378 40.49 41.2869 40.3803C42.2863 39.6369 43.0756 39.1109 44.1238 39.1109H44.1294C45.0416 39.1109 45.8225 39.5066 47.1163 40.1591C48.8038 41.0103 52.6578 43.3081 54.3481 45.0134C55.1703 45.8422 55.6288 46.3709 55.8528 46.9644C56.1903 47.8578 55.8725 48.5581 55.6653 49.0269C55.6306 49.1047 55.5922 49.19 55.5519 49.2847C55.1573 50.2199 54.6774 51.1168 54.1184 51.9641C53.1219 53.4547 52.1122 54.6088 50.4266 55.3934C49.561 55.8029 48.6137 56.0103 47.6563 56Z" fill="white"/>
</svg>
