<svg width="71" height="71" viewBox="0 0 71 71" fill="none" xmlns="http://www.w3.org/2000/svg">
<path d="M0 35.5C0 55.1061 15.8939 71 35.5 71C41.0574 71 46.3165 69.723 51 67.4464L43.5 18.3418L6 15.745C2.21063 21.3924 0 28.188 0 35.5Z" fill="#5759DA"/>
<path d="M35.5 0C24.4337 0 14.5501 5.06349 8.03958 13L65.8045 17C59.5668 6.804 48.328 0 35.5 0Z" fill="#5759DA"/>
<path d="M71 35.5C71 29.9426 69.723 24.6835 67.4464 20L46.5 18.5495L53.6766 66C64.0519 59.8035 71 48.4632 71 35.5Z" fill="#5759DA"/>
<path d="M35.5021 14.25C47.2385 14.25 56.7521 23.7636 56.7521 35.5C56.7521 47.2364 47.2385 56.75 35.5021 56.75C31.7467 56.7565 28.0573 55.7626 24.8134 53.8706L14.2606 56.75L17.1336 46.193C15.2401 42.948 14.2455 39.257 14.2521 35.5C14.2521 23.7636 23.7657 14.25 35.5021 14.25ZM28.2601 25.5125L27.8351 25.5295C27.5603 25.5484 27.2918 25.6206 27.0446 25.742C26.8142 25.8727 26.6038 26.0359 26.4199 26.2265C26.1649 26.4666 26.0204 26.6749 25.8652 26.8767C25.0792 27.8987 24.656 29.1533 24.6625 30.4425C24.6667 31.4837 24.9387 32.4974 25.3637 33.4451C26.2329 35.3619 27.663 37.3912 29.55 39.2719C30.0047 39.7245 30.451 40.1793 30.9312 40.6021C33.276 42.6664 36.0701 44.1551 39.0912 44.9499L40.2982 45.1348C40.6914 45.156 41.0845 45.1262 41.4797 45.1071C42.0985 45.0745 42.7027 44.907 43.2499 44.6163C43.5279 44.4725 43.7995 44.3165 44.0637 44.1487C44.0637 44.1487 44.1537 44.0878 44.3294 43.9575C44.6162 43.745 44.7926 43.5941 45.0306 43.3455C45.2091 43.1613 45.3579 42.9474 45.4769 42.7038C45.6426 42.3574 45.8084 41.6965 45.8764 41.1461C45.9274 40.7254 45.9125 40.4959 45.9061 40.3535C45.8976 40.1261 45.7085 39.8903 45.5024 39.7904L44.2656 39.2358C44.2656 39.2358 42.4169 38.4304 41.2864 37.9161C41.168 37.8646 41.0413 37.8351 40.9124 37.829C40.767 37.8138 40.62 37.83 40.4814 37.8766C40.3428 37.9231 40.2158 37.999 40.1091 38.0989C40.0985 38.0946 39.9561 38.2158 38.4197 40.0773C38.3315 40.1957 38.2101 40.2853 38.0708 40.3345C37.9315 40.3837 37.7808 40.3903 37.6377 40.3535C37.4992 40.3166 37.3636 40.2697 37.2319 40.2133C36.9684 40.1028 36.877 40.0602 36.6964 39.9837C35.4763 39.4523 34.347 38.7331 33.3495 37.8524C33.0817 37.6186 32.8331 37.3636 32.5781 37.1171C31.7422 36.3164 31.0136 35.4107 30.4106 34.4226L30.2852 34.2207C30.1965 34.0843 30.1238 33.9382 30.0685 33.7851C29.9877 33.4727 30.1981 33.222 30.1981 33.222C30.1981 33.222 30.7145 32.6567 30.9546 32.3507C31.1884 32.0532 31.386 31.7643 31.5135 31.5581C31.7642 31.1544 31.8429 30.74 31.7111 30.4191C31.1161 28.9656 30.5013 27.5199 29.8666 26.082C29.7412 25.7972 29.3694 25.5932 29.0315 25.5529C28.9167 25.5387 28.802 25.5274 28.6872 25.5189C28.4019 25.5025 28.1158 25.5053 27.8309 25.5274L28.2601 25.5125Z" fill="white"/>
</svg>
